<svg width="134" height="134" viewBox="0 0 134 134" fill="none" xmlns="http://www.w3.org/2000/svg">
<circle cx="67" cy="67" r="67" fill="#404040"/>
<mask id="mask0_124_470" style="mask-type:alpha" maskUnits="userSpaceOnUse" x="0" y="0" width="134" height="134">
<circle cx="67" cy="67" r="67" fill="#A9A9A9"/>
</mask>
<g mask="url(#mask0_124_470)">
<path d="M67.235 81.4839L51.935 82.5564C44.2759 85.6173 37.7106 90.9046 33.0873 97.7352C28.4641 104.566 25.9953 112.626 26 120.874V133.999H108.5V120.874C108.5 103.571 97.8163 88.7364 82.6963 82.6201L67.235 81.4839V81.4839Z" fill="#3E25BB"/>
<path d="M77.4125 81.949H57.0875L57.125 133.999H77.4125V81.949Z" fill="#D3D3D3"/>
<path d="M78.0275 81.0488L77.4125 81.6488V133.961L87.725 104.486C88.175 103.136 87.8375 101.674 86.825 100.699L81.725 95.7113C81.5828 95.5735 81.4856 95.3958 81.4461 95.2018C81.4066 95.0077 81.4267 94.8062 81.5038 94.6237C81.5808 94.4413 81.7112 94.2864 81.8778 94.1793C82.0445 94.0723 82.2395 94.0181 82.4375 94.0238H86.375C87.1625 94.0238 87.6875 93.1988 87.35 92.4863L82.7375 82.6613L82.7225 82.6313C81.1909 82.0096 79.623 81.4811 78.0275 81.0488V81.0488ZM51.9238 82.5601C51.92 82.5688 51.9162 82.5776 51.9125 82.5863L47.15 92.6738C46.8125 93.3863 47.375 94.2113 48.1625 94.2113H52.1C53 94.2113 53.4125 95.2988 52.8125 95.8988L47.7125 100.886C46.7375 101.861 46.3625 103.324 46.85 104.636L57.0875 133.961H57.125V81.8363L55.5313 81.3113C54.305 81.6713 53.1013 82.0876 51.9238 82.5601Z" fill="#7D26F7"/>
<path d="M67.2125 91.5488L60.9125 92.7488L64.5875 100.661L59.4875 133.999H74.9L69.8375 100.661L73.475 92.7488L67.2125 91.5488V91.5488Z" fill="#321B41"/>
<path d="M67.25 78.9114H57.0875V96.6864C57.0875 97.8489 58.4375 98.5239 59.375 97.7739L67.25 91.5114L75.125 97.7739C76.0625 98.5239 77.4125 97.8489 77.4125 96.6864V78.9114H67.25V78.9114Z" fill="#E6E6E6"/>
<path d="M55.1375 61.2115C55.1375 62.8724 54.4777 64.4653 53.3032 65.6397C52.1288 66.8142 50.5359 67.474 48.875 67.474C47.2141 67.474 45.6212 66.8142 44.4467 65.6397C43.2723 64.4653 42.6125 62.8724 42.6125 61.2115C42.6125 59.5506 43.2723 57.9577 44.4467 56.7832C45.6212 55.6088 47.2141 54.949 48.875 54.949C50.5359 54.949 52.1288 55.6088 53.3032 56.7832C54.4777 57.9577 55.1375 59.5506 55.1375 61.2115V61.2115ZM91.85 61.2115C91.85 62.8724 91.1902 64.4653 90.0157 65.6397C88.8413 66.8142 87.2484 67.474 85.5875 67.474C83.9266 67.474 82.3337 66.8142 81.1592 65.6397C79.9848 64.4653 79.325 62.8724 79.325 61.2115C79.325 59.5506 79.9848 57.9577 81.1592 56.7832C82.3337 55.6088 83.9266 54.949 85.5875 54.949C87.2484 54.949 88.8413 55.6088 90.0157 56.7832C91.1902 57.9577 91.85 59.5506 91.85 61.2115V61.2115ZM67.25 90.874C63.0987 90.874 59.75 87.259 59.75 82.7777V72.724C59.75 68.2427 63.0987 64.6277 67.25 64.6277C71.4012 64.6277 74.75 68.2427 74.75 72.724V82.7815C74.75 87.2627 71.4012 90.8777 67.25 90.8777V90.874Z" fill="#F4C6AD"/>
<path d="M65.5812 32.7488C55.13 32.7488 46.8687 41.775 47.6075 52.425L49.0925 73.7663C49.7225 80.4525 54.9087 85.2488 61.2087 85.2488H73.2912C79.5912 85.2488 84.7775 80.4488 85.4075 73.7663L86.8925 52.4288C87.6312 41.8125 79.37 32.7488 68.9187 32.7488H65.5812Z" fill="#FFD7C2"/>
<path d="M53.4125 60.8814C53.975 58.5939 56.075 56.8689 58.55 56.8689C61.1375 56.8689 63.275 58.7064 63.7625 61.1439C63.875 61.6689 63.4625 62.1564 62.9 62.1564H54.425C53.75 62.1564 53.225 61.5189 53.4125 60.8814ZM81.875 60.8814C81.3125 58.5939 79.2125 56.8689 76.7375 56.8689C74.15 56.8689 72.0125 58.7064 71.525 61.1439C71.4125 61.6689 71.825 62.1564 72.3875 62.1564H80.8625C81.5375 62.1564 82.025 61.5564 81.875 60.8814V60.8814Z" fill="white"/>
<path d="M55.925 61.2939C55.925 59.4189 57.4625 57.8813 59.3375 57.8813C61.2125 57.8813 62.7125 59.3813 62.7125 61.2563C62.7125 61.5938 62.675 61.8938 62.6 62.1938H56.0375C55.9632 61.8996 55.9254 61.5973 55.925 61.2939V61.2939ZM79.3625 61.2939C79.3625 59.4189 77.825 57.8813 75.95 57.8813C74.075 57.8813 72.575 59.3814 72.575 61.2939C72.575 61.5939 72.6125 61.8938 72.6875 62.1938H79.25C79.325 61.8938 79.3625 61.5939 79.3625 61.2939V61.2939Z" fill="#7D4533"/>
<path d="M59.3375 59.3065C59.6738 59.303 60.0051 59.3872 60.2989 59.5508C60.5927 59.7144 60.8388 59.9518 61.013 60.2394C61.1871 60.5271 61.2832 60.8552 61.2919 61.1914C61.3006 61.5276 61.2215 61.8602 61.0625 62.1565H57.6125C57.4535 61.8602 57.3744 61.5276 57.3831 61.1914C57.3918 60.8552 57.4879 60.5271 57.6621 60.2394C57.8362 59.9518 58.0823 59.7144 58.3761 59.5508C58.6699 59.3872 59.0012 59.303 59.3375 59.3065V59.3065ZM75.95 59.3065C75.6137 59.303 75.2824 59.3872 74.9886 59.5508C74.6948 59.7144 74.4487 59.9518 74.2745 60.2394C74.1004 60.5271 74.0043 60.8552 73.9956 61.1914C73.9869 61.5276 74.066 61.8602 74.225 62.1565H77.675C77.834 61.8602 77.9131 61.5276 77.9044 61.1914C77.8957 60.8552 77.7996 60.5271 77.6255 60.2394C77.4513 59.9518 77.2052 59.7144 76.9114 59.5508C76.6176 59.3872 76.2863 59.303 75.95 59.3065V59.3065Z" fill="black"/>
<path d="M58.775 59.944C58.775 60.1031 58.7118 60.2557 58.5993 60.3683C58.4868 60.4808 58.3341 60.544 58.175 60.544C58.0159 60.544 57.8633 60.4808 57.7507 60.3683C57.6382 60.2557 57.575 60.1031 57.575 59.944C57.575 59.7849 57.6382 59.6323 57.7507 59.5197C57.8633 59.4072 58.0159 59.344 58.175 59.344C58.3341 59.344 58.4868 59.4072 58.5993 59.5197C58.7118 59.6323 58.775 59.7849 58.775 59.944ZM75.5 59.944C75.5 60.1031 75.4368 60.2557 75.3243 60.3683C75.2118 60.4808 75.0591 60.544 74.9 60.544C74.7409 60.544 74.5883 60.4808 74.4757 60.3683C74.3632 60.2557 74.3 60.1031 74.3 59.944C74.3 59.7849 74.3632 59.6323 74.4757 59.5197C74.5883 59.4072 74.7409 59.344 74.9 59.344C75.0591 59.344 75.2118 59.4072 75.3243 59.5197C75.4368 59.6323 75.5 59.7849 75.5 59.944Z" fill="white"/>
<path d="M86.6862 37.9689L85.1187 37.1814C84.0084 36.6102 82.9978 35.863 82.1262 34.9689L79.0625 31.8189C77.9559 30.6694 76.5413 29.8634 74.9882 29.4976C73.4352 29.1317 71.8095 29.2216 70.3062 29.7564C68.3375 30.4689 66.1475 30.4689 64.1787 29.7564C61.5162 28.3689 58.2687 28.9314 56.1162 31.1064L52.3962 34.9314C51.5187 35.8314 50.4987 36.5814 49.3662 37.1814L47.8362 37.9689C46.4179 38.7188 45.275 39.9008 44.5731 41.3435C43.8713 42.7863 43.6469 44.4151 43.9325 45.9939L46.01 57.7314C46.2312 58.8939 47.2137 59.7564 48.3462 59.7939L47.9787 54.3189C47.9466 53.7753 48.0348 53.2313 48.237 52.7257C48.4393 52.2201 48.7506 51.7654 49.1487 51.3939L49.8425 50.7564C50.7912 49.8939 51.3012 48.6564 51.3012 47.3814V44.0814C51.3012 43.1439 51.92 42.3189 52.7975 42.0939C55.1675 41.4939 60.2375 40.4439 67.2425 40.4439C74.2475 40.4439 79.3175 41.4939 81.6875 42.0939C82.565 42.3189 83.1875 43.1439 83.1875 44.0814V47.3814C83.1875 48.6564 83.7312 49.8939 84.6425 50.7564L85.3737 51.4314C86.1762 52.1814 86.6112 53.2314 86.54 54.3564L86.1763 59.7939C86.7348 59.7564 87.2646 59.5329 87.6813 59.159C88.0979 58.7852 88.3774 58.2826 88.475 57.7314L90.5525 45.9939C90.8614 44.4181 90.6517 42.7847 89.9548 41.338C89.2578 39.8914 88.1111 38.7094 86.6862 37.9689V37.9689Z" fill="black"/>
<path d="M79.4 54.9939C79.8125 55.2564 80.225 55.4064 80.675 55.4064C81.3125 55.4064 81.9125 55.1439 82.2875 54.5814C83 53.6814 82.8125 52.3689 81.9125 51.6564C81.8 51.5439 78.65 49.1439 74.075 49.7064C73.5507 49.803 73.0828 50.0954 72.7662 50.5243C72.4495 50.9531 72.3078 51.4864 72.3699 52.0159C72.4319 52.5454 72.6929 53.0314 73.1001 53.3755C73.5073 53.7196 74.0301 53.896 74.5625 53.8689C76.2574 53.6573 77.9724 54.0561 79.4 54.9939V54.9939ZM52.9625 54.5814C53.3375 55.1064 53.975 55.4064 54.6125 55.4064C55.025 55.4064 55.475 55.2564 55.85 54.9939C55.925 54.9189 57.8375 53.5314 60.6875 53.8689C61.85 53.9814 62.8625 53.1564 63.0125 52.0314C63.068 51.4811 62.9073 50.9308 62.5644 50.4969C62.2214 50.063 61.7232 49.7795 61.175 49.7064C56.6375 49.1814 53.45 51.5439 53.3375 51.6564C52.4375 52.3689 52.25 53.6439 52.9625 54.5814V54.5814Z" fill="#212121"/>
<path d="M65.9525 60.0865L64.0925 66.604C63.7063 67.939 64.6175 69.3115 65.9188 69.3115H68.6563C69.95 69.3115 70.865 67.939 70.4788 66.604L68.6188 60.0865C68.2325 58.6352 66.3725 58.6352 65.9563 60.0865H65.9525Z" fill="#E5AF93"/>
<path d="M67.25 72.8965C65.2727 72.9056 63.3259 72.4086 61.595 71.4527C61.0212 71.134 60.4475 71.8165 60.7925 72.3752C62.1687 74.5765 64.5387 76.0577 67.25 76.0577C69.965 76.0577 72.335 74.5765 73.7112 72.3752C74.0562 71.8127 73.445 71.1752 72.9087 71.4527C71.1748 72.4046 69.2279 72.9013 67.25 72.8965V72.8965Z" fill="#990838"/>
</g>
</svg>
