<svg width="55" height="55" viewBox="0 0 55 55" fill="none" xmlns="http://www.w3.org/2000/svg">
<mask id="mask0_83_106" style="mask-type:alpha" maskUnits="userSpaceOnUse" x="7" y="7" width="41" height="41">
<circle cx="27.3205" cy="27.3205" r="20" transform="rotate(30 27.3205 27.3205)" fill="#D9D9D9" fill-opacity="0.5"/>
</mask>
<g mask="url(#mask0_83_106)">
<rect x="24.366" y="-5.56213" width="2" height="55" transform="rotate(30 24.366 -5.56213)" fill="#D9D9D9" fill-opacity="0.7"/>
<rect x="52.0789" y="10.4379" width="2" height="55" transform="rotate(30 52.0789 10.4379)" fill="#D9D9D9" fill-opacity="0.7"/>
<rect x="38.2224" y="2.43787" width="2" height="55" transform="rotate(30 38.2224 2.43787)" fill="#D9D9D9" fill-opacity="0.7"/>
<rect x="31.2942" y="-1.56213" width="2" height="55" transform="rotate(30 31.2942 -1.56213)" fill="#D9D9D9" fill-opacity="0.7"/>
<rect x="45.1506" y="6.43787" width="2" height="55" transform="rotate(30 45.1506 6.43787)" fill="#D9D9D9" fill-opacity="0.7"/>
<rect x="27.8301" y="-3.56213" width="2" height="55" transform="rotate(30 27.8301 -3.56213)" fill="#D9D9D9" fill-opacity="0.7"/>
<rect x="55.543" y="12.4379" width="2" height="55" transform="rotate(30 55.543 12.4379)" fill="#D9D9D9" fill-opacity="0.7"/>
<rect x="41.6865" y="4.43787" width="2" height="55" transform="rotate(30 41.6865 4.43787)" fill="#D9D9D9" fill-opacity="0.7"/>
<rect x="34.7583" y="0.437866" width="2" height="55" transform="rotate(30 34.7583 0.437866)" fill="#D9D9D9" fill-opacity="0.7"/>
<rect x="48.6147" y="8.43787" width="2" height="55" transform="rotate(30 48.6147 8.43787)" fill="#D9D9D9" fill-opacity="0.7"/>
</g>
<circle cx="33" cy="32" r="20" fill="#D9D9D9"/>
<path d="M36.5742 40.2622C36.8034 40.2635 37.0306 40.2191 37.2425 40.1317C37.4544 40.0443 37.6467 39.9155 37.8083 39.753L40.1471 37.4142C40.3078 37.2525 40.398 37.0338 40.398 36.8058C40.398 36.5778 40.3078 36.359 40.1471 36.1973L36.695 32.7453C36.5333 32.5845 36.3146 32.4943 36.0866 32.4943C35.8586 32.4943 35.6399 32.5845 35.4782 32.7453L34.0973 34.1175C33.1413 33.8626 32.2559 33.3933 31.5083 32.7453C30.862 31.9964 30.3929 31.1115 30.1361 30.1562L31.5083 28.7754C31.669 28.6137 31.7592 28.395 31.7592 28.167C31.7592 27.939 31.669 27.7202 31.5083 27.5585L28.0562 24.1065C27.8945 23.9457 27.6758 23.8555 27.4478 23.8555C27.2198 23.8555 27.0011 23.9457 26.8394 24.1065L24.5092 26.4539C24.3466 26.6155 24.2179 26.8078 24.1305 27.0197C24.043 27.2316 23.9987 27.4588 24 27.688C24.0783 31.004 25.4034 34.1686 27.711 36.5512C30.0936 38.8588 33.2582 40.1839 36.5742 40.2622V40.2622ZM27.4521 25.9447L29.6873 28.1799L28.574 29.2932C28.4686 29.392 28.3896 29.5156 28.3444 29.6529C28.2991 29.7901 28.2891 29.9364 28.3151 30.0786C28.6377 31.5201 29.3206 32.8563 30.3001 33.9621C31.405 34.9428 32.7416 35.6259 34.1836 35.9471C34.3236 35.9763 34.4686 35.9704 34.6057 35.9297C34.7428 35.889 34.8676 35.8149 34.969 35.7141L36.0823 34.5749L38.3175 36.8101L36.5915 38.5361C33.7295 38.4624 30.9987 37.3202 28.9365 35.3343C26.9454 33.2713 25.7999 30.5369 25.7261 27.6707L27.4521 25.9447ZM39.5343 30.769H41.2604C41.2828 29.7428 41.0971 28.7228 40.7147 27.7703C40.3323 26.8179 39.761 25.9527 39.0353 25.2269C38.3095 24.5012 37.4443 23.9299 36.4919 23.5475C35.5394 23.165 34.5194 22.9794 33.4932 23.0018V24.7278C34.294 24.7001 35.092 24.8375 35.8374 25.1312C36.5829 25.425 37.26 25.869 37.8266 26.4356C38.3932 27.0022 38.8371 27.6793 39.1309 28.4248C39.4247 29.1702 39.562 29.9682 39.5343 30.769Z" fill="black"/>
<path d="M33.4932 28.1799C35.3055 28.1799 36.0822 28.9566 36.0822 30.7689H37.8083C37.8083 27.99 36.2721 26.4539 33.4932 26.4539V28.1799Z" fill="black"/>
</svg>
