<svg width="55" height="55" viewBox="0 0 55 55" fill="none" xmlns="http://www.w3.org/2000/svg">
<mask id="mask0_83_104" style="mask-type:alpha" maskUnits="userSpaceOnUse" x="7" y="7" width="41" height="41">
<circle cx="27.3205" cy="27.3205" r="20" transform="rotate(30 27.3205 27.3205)" fill="#D9D9D9" fill-opacity="0.5"/>
</mask>
<g mask="url(#mask0_83_104)">
<rect x="24.366" y="-5.56213" width="2" height="55" transform="rotate(30 24.366 -5.56213)" fill="#D9D9D9" fill-opacity="0.7"/>
<rect x="52.0789" y="10.4379" width="2" height="55" transform="rotate(30 52.0789 10.4379)" fill="#D9D9D9" fill-opacity="0.7"/>
<rect x="38.2224" y="2.43787" width="2" height="55" transform="rotate(30 38.2224 2.43787)" fill="#D9D9D9" fill-opacity="0.7"/>
<rect x="31.2942" y="-1.56213" width="2" height="55" transform="rotate(30 31.2942 -1.56213)" fill="#D9D9D9" fill-opacity="0.7"/>
<rect x="45.1506" y="6.43787" width="2" height="55" transform="rotate(30 45.1506 6.43787)" fill="#D9D9D9" fill-opacity="0.7"/>
<rect x="27.8301" y="-3.56213" width="2" height="55" transform="rotate(30 27.8301 -3.56213)" fill="#D9D9D9" fill-opacity="0.7"/>
<rect x="55.543" y="12.4379" width="2" height="55" transform="rotate(30 55.543 12.4379)" fill="#D9D9D9" fill-opacity="0.7"/>
<rect x="41.6865" y="4.43787" width="2" height="55" transform="rotate(30 41.6865 4.43787)" fill="#D9D9D9" fill-opacity="0.7"/>
<rect x="34.7583" y="0.437866" width="2" height="55" transform="rotate(30 34.7583 0.437866)" fill="#D9D9D9" fill-opacity="0.7"/>
<rect x="48.6147" y="8.43787" width="2" height="55" transform="rotate(30 48.6147 8.43787)" fill="#D9D9D9" fill-opacity="0.7"/>
</g>
<circle cx="33" cy="32" r="20" fill="#D9D9D9"/>
<path d="M42 35.9439C41.9996 37.1239 41.6023 38.2683 40.8738 39.1878C40.1453 40.1072 39.1293 40.7466 37.994 41L37.4517 39.3486C37.9483 39.2656 38.4205 39.0717 38.8344 38.7811C39.2483 38.4905 39.5936 38.1102 39.8453 37.6678H37.75C37.2991 37.6678 36.8667 37.486 36.5479 37.1624C36.2291 36.8388 36.05 36.3999 36.05 35.9422V32.4909C36.05 32.0333 36.2291 31.5944 36.5479 31.2707C36.8667 30.9471 37.2991 30.7653 37.75 30.7653H40.2473C40.0399 29.0974 39.24 27.5637 37.9977 26.4518C36.7554 25.34 35.1562 24.7266 33.5 24.7266C31.8438 24.7266 30.2446 25.34 29.0023 26.4518C27.76 27.5637 26.9601 29.0974 26.7527 30.7653H29.25C29.7009 30.7653 30.1333 30.9471 30.4521 31.2707C30.7709 31.5944 30.95 32.0333 30.95 32.4909V35.9422C30.95 36.3999 30.7709 36.8388 30.4521 37.1624C30.1333 37.486 29.7009 37.6678 29.25 37.6678H26.7C26.2491 37.6678 25.8167 37.486 25.4979 37.1624C25.1791 36.8388 25 36.3999 25 35.9422V31.6281C25 26.8628 28.8055 23 33.5 23C38.1946 23 42 26.8628 42 31.6281V35.9439ZM40.3 35.9422V32.4909H37.75V35.9422H40.3ZM26.7 32.4909V35.9422H29.25V32.4909H26.7Z" fill="black"/>
</svg>
