<svg width="134" height="134" viewBox="0 0 134 134" fill="none" xmlns="http://www.w3.org/2000/svg">
<circle cx="67" cy="67" r="67" fill="#404040"/>
<mask id="mask0_124_472" style="mask-type:alpha" maskUnits="userSpaceOnUse" x="0" y="0" width="134" height="134">
<circle cx="67" cy="67" r="67" fill="#A9A9A9"/>
</mask>
<g mask="url(#mask0_124_472)">
<path d="M36.1317 54.7595H33.572C33.1014 54.7595 32.6502 54.5725 32.3175 54.2398C31.9848 53.9071 31.7979 53.4559 31.7979 52.9854V49.2562C31.7617 48.2787 32.5582 47.4822 33.572 47.4822H36.1317C37.1092 47.4822 37.9057 48.2787 37.9057 49.2562V52.9492C37.9057 53.9629 37.1092 54.7595 36.1317 54.7595Z" fill="url(#paint0_linear_124_472)"/>
<path d="M92.0798 54.7595H89.4984C89.0279 54.7595 88.5766 54.5725 88.2439 54.2398C87.9112 53.9071 87.7243 53.4559 87.7243 52.9854V49.2562C87.6881 48.2787 88.4846 47.4822 89.4984 47.4822H92.0798C93.0573 47.4822 93.8539 48.2787 93.8539 49.2562V52.9492C93.8539 53.9629 93.0573 54.7595 92.0798 54.7595Z" fill="url(#paint1_linear_124_472)"/>
<path d="M92.0798 54.7595H89.4984C89.0279 54.7595 88.5766 54.5725 88.2439 54.2398C87.9112 53.9071 87.7243 53.4559 87.7243 52.9854V49.2562C87.6881 48.2787 88.4846 47.4822 89.4984 47.4822H92.0798C93.0573 47.4822 93.8539 48.2787 93.8539 49.2562V52.9492C93.8539 53.9629 93.0573 54.7595 92.0798 54.7595Z" fill="url(#paint2_radial_124_472)"/>
<g filter="url(#filter0_i_124_472)">
<path d="M62.8259 81.8772C40.8492 81.8772 23 99.6902 23 121.703V134.375H98.995C99.9553 134.375 100.876 133.994 101.555 133.315C102.234 132.636 102.616 131.715 102.616 130.754V121.703C102.616 99.6902 84.8025 81.8772 62.8259 81.8772V81.8772Z" fill="url(#paint3_linear_124_472)"/>
<path d="M62.8259 81.8772C40.8492 81.8772 23 99.6902 23 121.703V134.375H98.995C99.9553 134.375 100.876 133.994 101.555 133.315C102.234 132.636 102.616 131.715 102.616 130.754V121.703C102.616 99.6902 84.8025 81.8772 62.8259 81.8772V81.8772Z" fill="url(#paint4_radial_124_472)"/>
</g>
<g filter="url(#filter1_f_124_472)">
<path d="M48.4198 85.4762V102.239C48.4125 103.181 48.5067 104.336 49.3249 104.846C50.1721 105.367 51.4285 104.774 52.015 104.332L61.0663 97.9417V82.8911C56.7395 83.0566 52.4688 83.9286 48.4234 85.4726L48.4198 85.4762Z" fill="#1E6DC3"/>
</g>
<g filter="url(#filter2_f_124_472)">
<path d="M75.9503 86.4681V103.032C75.9612 103.973 75.8671 105.125 75.0452 105.635C74.2016 106.16 72.9453 105.57 72.3588 105.128L63.3074 98.7344V83.7092C67.7571 83.9409 72.0076 84.8968 75.9503 86.4681Z" fill="#1E6DC3"/>
</g>
<g filter="url(#filter3_i_124_472)">
<path d="M48.6081 84.4877V101.251C48.6008 102.192 48.695 103.347 49.5132 103.858C50.3604 104.379 51.6167 103.789 52.2033 103.347L61.2546 96.9532V81.9062C56.9266 82.0721 52.6548 82.944 48.6081 84.4877V84.4877Z" fill="#3674C9"/>
<path d="M48.6081 84.4877V101.251C48.6008 102.192 48.695 103.347 49.5132 103.858C50.3604 104.379 51.6167 103.789 52.2033 103.347L61.2546 96.9532V81.9062C56.9266 82.0721 52.6548 82.944 48.6081 84.4877V84.4877Z" fill="url(#paint5_radial_124_472)"/>
<path d="M48.6081 84.4877V101.251C48.6008 102.192 48.695 103.347 49.5132 103.858C50.3604 104.379 51.6167 103.789 52.2033 103.347L61.2546 96.9532V81.9062C56.9266 82.0721 52.6548 82.944 48.6081 84.4877V84.4877Z" fill="url(#paint6_radial_124_472)"/>
<path d="M48.6081 84.4877V101.251C48.6008 102.192 48.695 103.347 49.5132 103.858C50.3604 104.379 51.6167 103.789 52.2033 103.347L61.2546 96.9532V81.9062C56.9266 82.0721 52.6548 82.944 48.6081 84.4877V84.4877Z" fill="url(#paint7_linear_124_472)"/>
</g>
<path d="M77.5434 84.6866V101.254C77.5542 102.195 77.4601 103.347 76.6382 103.854C75.7947 104.379 74.5383 103.789 73.9518 103.347L64.9005 96.953V81.9277C69.3465 82.1594 73.6006 83.1189 77.5434 84.6866Z" fill="#3C77CF"/>
<path d="M77.5434 84.6866V101.254C77.5542 102.195 77.4601 103.347 76.6382 103.854C75.7947 104.379 74.5383 103.789 73.9518 103.347L64.9005 96.953V81.9277C69.3465 82.1594 73.6006 83.1189 77.5434 84.6866Z" fill="url(#paint8_linear_124_472)"/>
<path d="M77.5434 84.6866V101.254C77.5542 102.195 77.4601 103.347 76.6382 103.854C75.7947 104.379 74.5383 103.789 73.9518 103.347L64.9005 96.953V81.9277C69.3465 82.1594 73.6006 83.1189 77.5434 84.6866Z" fill="url(#paint9_linear_124_472)"/>
<path d="M77.5434 84.6866V101.254C77.5542 102.195 77.4601 103.347 76.6382 103.854C75.7947 104.379 74.5383 103.789 73.9518 103.347L64.9005 96.953V81.9277C69.3465 82.1594 73.6006 83.1189 77.5434 84.6866Z" fill="url(#paint10_radial_124_472)"/>
<path d="M77.5434 84.6866V101.254C77.5542 102.195 77.4601 103.347 76.6382 103.854C75.7947 104.379 74.5383 103.789 73.9518 103.347L64.9005 96.953V81.9277C69.3465 82.1594 73.6006 83.1189 77.5434 84.6866Z" fill="url(#paint11_radial_124_472)"/>
<path d="M89.0205 50.1648H37.5002V62.0764H89.0205V50.1648V50.1648Z" fill="url(#paint12_linear_124_472)"/>
<path d="M89.0205 50.1648H37.5002V62.0764H89.0205V50.1648V50.1648Z" fill="url(#paint13_linear_124_472)"/>
<path d="M23.1086 134.375L37.5908 134.303L37.3735 91.0735C31.162 96.2297 26.6634 103.151 24.4736 110.921C23.525 114.354 23.0254 117.97 23.0362 121.703L23.1086 134.375V134.375Z" fill="url(#paint14_radial_124_472)"/>
<path d="M23.1086 134.375L37.5908 134.303L37.3735 91.0735C31.162 96.2297 26.6634 103.151 24.4736 110.921C23.525 114.354 23.0254 117.97 23.0362 121.703L23.1086 134.375V134.375Z" fill="url(#paint15_linear_124_472)"/>
<path d="M88.1334 90.9648V134.339H98.9951C99.9553 134.339 100.876 133.957 101.555 133.278C102.234 132.599 102.616 131.679 102.616 130.718V121.667C102.616 109.321 97.0038 98.2783 88.1334 90.9648Z" fill="#1E64BD"/>
<path d="M88.1334 90.9648V134.339H98.9951C99.9553 134.339 100.876 133.957 101.555 133.278C102.234 132.599 102.616 131.679 102.616 130.718V121.667C102.616 109.321 97.0038 98.2783 88.1334 90.9648Z" fill="url(#paint16_radial_124_472)"/>
<path d="M66.1568 97.0472L63.8034 99.1472C63.2242 99.654 62.3914 99.654 61.8121 99.1472L59.4588 97.0472C58.165 95.8813 57.1295 94.4576 56.4187 92.8676C55.7078 91.2776 55.3375 89.5565 55.3314 87.8149V76.6274C55.3505 74.6523 56.1485 72.7646 57.5519 71.3748C58.9554 69.9849 60.8507 69.2052 62.8259 69.2053C66.9533 69.2053 70.2842 72.5362 70.2842 76.6636V87.8511C70.248 91.363 68.7636 94.6939 66.1568 97.0472V97.0472Z" fill="#F3D8ED"/>
<path d="M66.1568 97.0472L63.8034 99.1472C63.2242 99.654 62.3914 99.654 61.8121 99.1472L59.4588 97.0472C58.165 95.8813 57.1295 94.4576 56.4187 92.8676C55.7078 91.2776 55.3375 89.5565 55.3314 87.8149V76.6274C55.3505 74.6523 56.1485 72.7646 57.5519 71.3748C58.9554 69.9849 60.8507 69.2052 62.8259 69.2053C66.9533 69.2053 70.2842 72.5362 70.2842 76.6636V87.8511C70.248 91.363 68.7636 94.6939 66.1568 97.0472V97.0472Z" fill="url(#paint17_radial_124_472)"/>
<path d="M62.8078 91.0733C58.4052 91.0733 54.8499 87.7026 54.8499 83.5281V74.1582C54.8499 70.0199 58.4052 66.6528 62.8078 66.6528C67.2104 66.6528 70.7621 70.0199 70.7621 74.1944V83.5644C70.7259 87.7026 67.1705 91.0697 62.8078 91.0697V91.0733Z" fill="url(#paint18_radial_124_472)"/>
<path d="M101.602 109.393C103.593 109.393 105.222 111.023 105.222 113.014V121.305H97.9813V113.014C97.9813 111.023 99.6105 109.393 101.602 109.393Z" fill="url(#paint19_radial_124_472)"/>
<path d="M101.602 109.393C103.593 109.393 105.222 111.023 105.222 113.014V121.305H97.9813V113.014C97.9813 111.023 99.6105 109.393 101.602 109.393Z" fill="url(#paint20_radial_124_472)"/>
<g filter="url(#filter4_i_124_472)">
<path d="M105.222 79.7774L102.652 77.2068L97.5106 82.3479C96.1348 83.7238 95.3745 85.5702 95.3745 87.4891V107.547H98.995V86.765C98.995 86.2581 99.1761 85.7875 99.5381 85.4254L105.222 79.7774Z" fill="#C6C6C6"/>
<path d="M105.222 79.7774L102.652 77.2068L97.5106 82.3479C96.1348 83.7238 95.3745 85.5702 95.3745 87.4891V107.547H98.995V86.765C98.995 86.2581 99.1761 85.7875 99.5381 85.4254L105.222 79.7774Z" fill="url(#paint21_radial_124_472)"/>
</g>
<path d="M100.914 119.676H93.4918V108.814C93.4918 108.126 94.0711 107.547 94.759 107.547H99.6468C100.335 107.547 100.914 108.126 100.914 108.814V119.676V119.676Z" fill="url(#paint22_linear_124_472)"/>
<path d="M100.914 119.676H93.4918V108.814C93.4918 108.126 94.0711 107.547 94.759 107.547H99.6468C100.335 107.547 100.914 108.126 100.914 108.814V119.676V119.676Z" fill="url(#paint23_radial_124_472)"/>
<g filter="url(#filter5_i_124_472)">
<path d="M111.725 73.4052C112.018 72.2249 111.178 71.3994 109.994 71.6963C106.815 72.348 101.681 73.1662 100.168 75.1503C98.1008 77.3697 98.1768 80.878 100.277 83.0575C100.806 83.6042 101.439 84.0396 102.139 84.338C102.839 84.6364 103.592 84.7918 104.353 84.7952C105.114 84.7986 105.868 84.6498 106.571 84.3576C107.273 84.0654 107.91 83.6357 108.445 83.0938C110.266 81.24 111.099 76.4464 111.725 73.4052Z" fill="url(#paint24_linear_124_472)"/>
</g>
<path d="M104.143 82.2284C104.548 82.2284 104.948 82.1488 105.321 81.9941C105.695 81.8395 106.034 81.6128 106.32 81.327C106.605 81.0413 106.832 80.702 106.987 80.3286C107.141 79.9553 107.221 79.5551 107.221 79.1509C107.221 78.7468 107.141 78.3466 106.987 77.9732C106.832 77.5999 106.605 77.2606 106.32 76.9748C106.034 76.6891 105.695 76.4624 105.321 76.3077C104.948 76.1531 104.548 76.0735 104.143 76.0735C103.327 76.0735 102.544 76.3977 101.967 76.9748C101.39 77.552 101.066 78.3347 101.066 79.1509C101.066 79.9671 101.39 80.7499 101.967 81.327C102.544 81.9042 103.327 82.2284 104.143 82.2284Z" fill="white"/>
<g filter="url(#filter6_i_124_472)">
<path d="M89.5853 117.453C89.5853 115.997 90.7656 114.802 92.2174 114.802H100.878C102.03 114.802 103.135 115.26 103.95 116.075C104.765 116.89 105.222 117.995 105.222 119.147V130.755C105.222 131.715 104.841 132.636 104.162 133.315C103.483 133.994 102.562 134.375 101.602 134.375H92.2174C91.6181 134.376 91.0364 134.173 90.5674 133.799C90.0985 133.426 89.77 132.905 89.6359 132.321C89.5017 131.737 89.5698 131.124 89.829 130.584C90.0881 130.044 90.523 129.607 91.0625 129.346C90.6212 129.125 90.2502 128.785 89.9909 128.365C89.7317 127.945 89.5944 127.461 89.5944 126.967C89.5944 126.474 89.7317 125.99 89.9909 125.57C90.2502 125.15 90.6212 124.81 91.0625 124.589C90.6212 124.367 90.2502 124.028 89.9909 123.608C89.7317 123.188 89.5944 122.704 89.5944 122.21C89.5944 121.716 89.7317 121.233 89.9909 120.812C90.2502 120.392 90.6212 120.053 91.0625 119.831C90.6202 119.611 90.2481 119.272 89.9878 118.851C89.7275 118.431 89.5894 117.947 89.5889 117.453H89.5853Z" fill="url(#paint25_linear_124_472)"/>
<path d="M89.5853 117.453C89.5853 115.997 90.7656 114.802 92.2174 114.802H100.878C102.03 114.802 103.135 115.26 103.95 116.075C104.765 116.89 105.222 117.995 105.222 119.147V130.755C105.222 131.715 104.841 132.636 104.162 133.315C103.483 133.994 102.562 134.375 101.602 134.375H92.2174C91.6181 134.376 91.0364 134.173 90.5674 133.799C90.0985 133.426 89.77 132.905 89.6359 132.321C89.5017 131.737 89.5698 131.124 89.829 130.584C90.0881 130.044 90.523 129.607 91.0625 129.346C90.6212 129.125 90.2502 128.785 89.9909 128.365C89.7317 127.945 89.5944 127.461 89.5944 126.967C89.5944 126.474 89.7317 125.99 89.9909 125.57C90.2502 125.15 90.6212 124.81 91.0625 124.589C90.6212 124.367 90.2502 124.028 89.9909 123.608C89.7317 123.188 89.5944 122.704 89.5944 122.21C89.5944 121.716 89.7317 121.233 89.9909 120.812C90.2502 120.392 90.6212 120.053 91.0625 119.831C90.6202 119.611 90.2481 119.272 89.9878 118.851C89.7275 118.431 89.5894 117.947 89.5889 117.453H89.5853Z" fill="url(#paint26_radial_124_472)"/>
<path d="M89.5853 117.453C89.5853 115.997 90.7656 114.802 92.2174 114.802H100.878C102.03 114.802 103.135 115.26 103.95 116.075C104.765 116.89 105.222 117.995 105.222 119.147V130.755C105.222 131.715 104.841 132.636 104.162 133.315C103.483 133.994 102.562 134.375 101.602 134.375H92.2174C91.6181 134.376 91.0364 134.173 90.5674 133.799C90.0985 133.426 89.77 132.905 89.6359 132.321C89.5017 131.737 89.5698 131.124 89.829 130.584C90.0881 130.044 90.523 129.607 91.0625 129.346C90.6212 129.125 90.2502 128.785 89.9909 128.365C89.7317 127.945 89.5944 127.461 89.5944 126.967C89.5944 126.474 89.7317 125.99 89.9909 125.57C90.2502 125.15 90.6212 124.81 91.0625 124.589C90.6212 124.367 90.2502 124.028 89.9909 123.608C89.7317 123.188 89.5944 122.704 89.5944 122.21C89.5944 121.716 89.7317 121.233 89.9909 120.812C90.2502 120.392 90.6212 120.053 91.0625 119.831C90.6202 119.611 90.2481 119.272 89.9878 118.851C89.7275 118.431 89.5894 117.947 89.5889 117.453H89.5853Z" fill="url(#paint27_radial_124_472)"/>
<path d="M89.5853 117.453C89.5853 115.997 90.7656 114.802 92.2174 114.802H100.878C102.03 114.802 103.135 115.26 103.95 116.075C104.765 116.89 105.222 117.995 105.222 119.147V130.755C105.222 131.715 104.841 132.636 104.162 133.315C103.483 133.994 102.562 134.375 101.602 134.375H92.2174C91.6181 134.376 91.0364 134.173 90.5674 133.799C90.0985 133.426 89.77 132.905 89.6359 132.321C89.5017 131.737 89.5698 131.124 89.829 130.584C90.0881 130.044 90.523 129.607 91.0625 129.346C90.6212 129.125 90.2502 128.785 89.9909 128.365C89.7317 127.945 89.5944 127.461 89.5944 126.967C89.5944 126.474 89.7317 125.99 89.9909 125.57C90.2502 125.15 90.6212 124.81 91.0625 124.589C90.6212 124.367 90.2502 124.028 89.9909 123.608C89.7317 123.188 89.5944 122.704 89.5944 122.21C89.5944 121.716 89.7317 121.233 89.9909 120.812C90.2502 120.392 90.6212 120.053 91.0625 119.831C90.6202 119.611 90.2481 119.272 89.9878 118.851C89.7275 118.431 89.5894 117.947 89.5889 117.453H89.5853Z" fill="url(#paint28_radial_124_472)"/>
<path d="M89.5853 117.453C89.5853 115.997 90.7656 114.802 92.2174 114.802H100.878C102.03 114.802 103.135 115.26 103.95 116.075C104.765 116.89 105.222 117.995 105.222 119.147V130.755C105.222 131.715 104.841 132.636 104.162 133.315C103.483 133.994 102.562 134.375 101.602 134.375H92.2174C91.6181 134.376 91.0364 134.173 90.5674 133.799C90.0985 133.426 89.77 132.905 89.6359 132.321C89.5017 131.737 89.5698 131.124 89.829 130.584C90.0881 130.044 90.523 129.607 91.0625 129.346C90.6212 129.125 90.2502 128.785 89.9909 128.365C89.7317 127.945 89.5944 127.461 89.5944 126.967C89.5944 126.474 89.7317 125.99 89.9909 125.57C90.2502 125.15 90.6212 124.81 91.0625 124.589C90.6212 124.367 90.2502 124.028 89.9909 123.608C89.7317 123.188 89.5944 122.704 89.5944 122.21C89.5944 121.716 89.7317 121.233 89.9909 120.812C90.2502 120.392 90.6212 120.053 91.0625 119.831C90.6202 119.611 90.2481 119.272 89.9878 118.851C89.7275 118.431 89.5894 117.947 89.5889 117.453H89.5853Z" fill="url(#paint29_radial_124_472)"/>
</g>
<g filter="url(#filter7_f_124_472)">
<path d="M91.8227 119.9H98.3289" stroke="url(#paint30_linear_124_472)" stroke-width="0.1" stroke-linecap="round"/>
</g>
<g filter="url(#filter8_f_124_472)">
<path d="M91.5403 124.625H98.0464" stroke="url(#paint31_linear_124_472)" stroke-width="0.1" stroke-linecap="round"/>
</g>
<g filter="url(#filter9_f_124_472)">
<path d="M91.8227 129.35H98.3289" stroke="url(#paint32_linear_124_472)" stroke-width="0.1" stroke-linecap="round"/>
</g>
<path d="M80.7512 69.6578C81.9894 69.6216 83.148 69.198 84.0929 68.521V71.9605C84.0929 75.2552 82.127 78.1914 79.1436 79.4116C79.7855 78.0322 80.2151 76.5638 80.4181 75.0561L80.7548 69.6615L80.7512 69.6578Z" fill="url(#paint33_radial_124_472)"/>
<path d="M44.8608 69.6578C43.6587 69.6191 42.4954 69.2233 41.519 68.521V71.9605C41.519 75.2552 43.485 78.1914 46.4719 79.4116C45.8288 78.0325 45.3979 76.564 45.1939 75.0561L44.8608 69.6615V69.6578Z" fill="url(#paint34_linear_124_472)"/>
<path d="M81.6563 53.2676C82.5252 53.8903 83.6114 54.8896 84.3934 55.7694V59.4768C83.6041 58.8685 82.6085 58.7889 81.6237 58.5463C81.6491 57.3986 81.6599 55.8888 81.6599 54.7375C81.6599 54.3899 81.6889 53.6079 81.6599 53.2676H81.6563Z" fill="url(#paint35_radial_124_472)"/>
<g filter="url(#filter10_ii_124_472)">
<path d="M44.9947 75.2516C45.4518 78.7317 47.1594 81.9266 49.7989 84.2403C52.4383 86.5539 55.8294 87.8284 59.3393 87.8257H66.3052C73.5644 87.8257 79.7012 82.4601 80.6498 75.2516C81.0843 68.3002 81.5223 61.3705 81.8446 54.4227C81.8296 53.0588 81.2943 51.7521 80.3482 50.7696C79.402 49.7871 78.1164 49.203 76.7541 49.1367H71.5912C69.86 49.1343 68.1667 48.6294 66.7168 47.6834C65.2669 46.7374 64.1228 45.3909 63.4233 43.8072C63.2419 43.353 62.9289 42.9634 62.5243 42.6886C62.1198 42.4137 61.6423 42.2662 61.1532 42.2649H56.4537C49.6399 42.2649 44.1186 47.8478 44.1186 54.7376C44.1186 61.6058 44.5458 68.3653 44.9984 75.2516H44.9947Z" fill="url(#paint36_radial_124_472)"/>
</g>
<path d="M44.9947 75.2516C45.4518 78.7317 47.1594 81.9266 49.7989 84.2403C52.4383 86.5539 55.8294 87.8284 59.3393 87.8257H66.3052C73.5644 87.8257 79.7012 82.4601 80.6498 75.2516C81.0843 68.3002 81.5911 59.9838 81.917 53.036C81.8808 50.2047 79.5745 49.2525 76.7541 49.133H71.5912C69.8608 49.1313 68.168 48.6275 66.7182 47.6828C65.2684 46.7381 64.1239 45.3931 63.4233 43.8109C63.2425 43.356 62.9297 42.9656 62.5251 42.6901C62.1205 42.4145 61.6427 42.2664 61.1532 42.2649H56.4537C49.6399 42.2649 44.1186 47.8478 44.1186 54.7376C44.1186 61.6058 44.5458 68.3653 44.9984 75.2516H44.9947Z" fill="url(#paint37_radial_124_472)"/>
<path d="M44.9947 75.2516C45.4518 78.7317 47.1594 81.9266 49.7989 84.2403C52.4383 86.5539 55.8294 87.8284 59.3393 87.8257H66.3052C73.5644 87.8257 79.7012 82.4601 80.6498 75.2516C81.0843 68.3002 81.5911 59.9838 81.917 53.036C81.8808 50.2047 79.5745 49.2525 76.7541 49.133H71.5912C69.8608 49.1313 68.168 48.6275 66.7182 47.6828C65.2684 46.7381 64.1239 45.3931 63.4233 43.8109C63.2425 43.356 62.9297 42.9656 62.5251 42.6901C62.1205 42.4145 61.6427 42.2664 61.1532 42.2649H56.4537C49.6399 42.2649 44.1186 47.8478 44.1186 54.7376C44.1186 61.6058 44.5458 68.3653 44.9984 75.2516H44.9947Z" fill="url(#paint38_linear_124_472)"/>
<path d="M44.9947 75.2516C45.4518 78.7317 47.1594 81.9266 49.7989 84.2403C52.4383 86.5539 55.8294 87.8284 59.3393 87.8257H66.3052C73.5644 87.8257 79.7012 82.4601 80.6498 75.2516C81.0843 68.3002 81.5911 59.9838 81.917 53.036C81.8808 50.2047 79.5745 49.2525 76.7541 49.133H71.5912C69.8608 49.1313 68.168 48.6275 66.7182 47.6828C65.2684 46.7381 64.1239 45.3931 63.4233 43.8109C63.2425 43.356 62.9297 42.9656 62.5251 42.6901C62.1205 42.4145 61.6427 42.2664 61.1532 42.2649H56.4537C49.6399 42.2649 44.1186 47.8478 44.1186 54.7376C44.1186 61.6058 44.5458 68.3653 44.9984 75.2516H44.9947Z" fill="url(#paint39_radial_124_472)"/>
<path d="M44.9947 75.2516C45.4518 78.7317 47.1594 81.9266 49.7989 84.2403C52.4383 86.5539 55.8294 87.8284 59.3393 87.8257H66.3052C73.5644 87.8257 79.7012 82.4601 80.6498 75.2516C81.0843 68.3002 81.5911 59.9838 81.917 53.036C81.8808 50.2047 79.5745 49.2525 76.7541 49.133H71.5912C69.8608 49.1313 68.168 48.6275 66.7182 47.6828C65.2684 46.7381 64.1239 45.3931 63.4233 43.8109C63.2425 43.356 62.9297 42.9656 62.5251 42.6901C62.1205 42.4145 61.6427 42.2664 61.1532 42.2649H56.4537C49.6399 42.2649 44.1186 47.8478 44.1186 54.7376C44.1186 61.6058 44.5458 68.3653 44.9984 75.2516H44.9947Z" fill="url(#paint40_radial_124_472)"/>
<path d="M44.9947 75.2516C45.4518 78.7317 47.1594 81.9266 49.7989 84.2403C52.4383 86.5539 55.8294 87.8284 59.3393 87.8257H66.3052C73.5644 87.8257 79.7012 82.4601 80.6498 75.2516C81.0843 68.3002 81.5911 59.9838 81.917 53.036C81.8808 50.2047 79.5745 49.2525 76.7541 49.133H71.5912C69.8608 49.1313 68.168 48.6275 66.7182 47.6828C65.2684 46.7381 64.1239 45.3931 63.4233 43.8109C63.2425 43.356 62.9297 42.9656 62.5251 42.6901C62.1205 42.4145 61.6427 42.2664 61.1532 42.2649H56.4537C49.6399 42.2649 44.1186 47.8478 44.1186 54.7376C44.1186 61.6058 44.5458 68.3653 44.9984 75.2516H44.9947Z" fill="url(#paint41_radial_124_472)"/>
<path d="M44.9947 75.2516C45.4518 78.7317 47.1594 81.9266 49.7989 84.2403C52.4383 86.5539 55.8294 87.8284 59.3393 87.8257H66.3052C73.5644 87.8257 79.7012 82.4601 80.6498 75.2516C81.0843 68.3002 81.5911 59.9838 81.917 53.036C81.8808 50.2047 79.5745 49.2525 76.7541 49.133H71.5912C69.8608 49.1313 68.168 48.6275 66.7182 47.6828C65.2684 46.7381 64.1239 45.3931 63.4233 43.8109C63.2425 43.356 62.9297 42.9656 62.5251 42.6901C62.1205 42.4145 61.6427 42.2664 61.1532 42.2649H56.4537C49.6399 42.2649 44.1186 47.8478 44.1186 54.7376C44.1186 61.6058 44.5458 68.3653 44.9984 75.2516H44.9947Z" fill="url(#paint42_linear_124_472)"/>
<g filter="url(#filter11_f_124_472)">
<path d="M61.012 63.6985L58.6695 70.4833C58.2676 71.8809 59.2307 73.2748 60.5884 73.2748H63.4921C64.8534 73.2748 65.8165 71.8591 65.4146 70.487L63.4522 63.6985C63.0323 62.1923 61.4537 62.1923 61.012 63.6985V63.6985Z" fill="#C48377"/>
</g>
<g filter="url(#filter12_f_124_472)">
<path d="M61.3958 62.8622L59.4334 69.6507C59.0352 71.0447 59.9946 72.4386 61.3523 72.4386H64.2596C65.6209 72.4386 66.5804 71.0266 66.1785 69.6507L64.2198 62.8622C63.7962 61.3597 61.8339 61.3597 61.3958 62.8622Z" fill="url(#paint43_linear_124_472)"/>
<path d="M61.3958 62.8622L59.4334 69.6507C59.0352 71.0447 59.9946 72.4386 61.3523 72.4386H64.2596C65.6209 72.4386 66.5804 71.0266 66.1785 69.6507L64.2198 62.8622C63.7962 61.3597 61.8339 61.3597 61.3958 62.8622Z" fill="url(#paint44_linear_124_472)"/>
<path d="M61.3958 62.8622L59.4334 69.6507C59.0352 71.0447 59.9946 72.4386 61.3523 72.4386H64.2596C65.6209 72.4386 66.5804 71.0266 66.1785 69.6507L64.2198 62.8622C63.7962 61.3597 61.8339 61.3597 61.3958 62.8622Z" fill="url(#paint45_linear_124_472)"/>
<path d="M61.3958 62.8622L59.4334 69.6507C59.0352 71.0447 59.9946 72.4386 61.3523 72.4386H64.2596C65.6209 72.4386 66.5804 71.0266 66.1785 69.6507L64.2198 62.8622C63.7962 61.3597 61.8339 61.3597 61.3958 62.8622Z" fill="url(#paint46_linear_124_472)"/>
</g>
<g filter="url(#filter13_f_124_472)">
<path d="M57.7752 74.3645C59.2307 75.1248 60.9613 75.5593 62.8078 75.5593C64.6687 75.5593 66.3849 75.1248 67.8403 74.3645C67.9838 74.2889 68.148 74.2622 68.3081 74.2883C68.4682 74.3144 68.6154 74.392 68.7274 74.5093C68.8426 74.6246 68.9131 74.7771 68.9263 74.9396C68.9396 75.102 68.8947 75.2639 68.7998 75.3964M57.7752 74.3645L68.6513 75.2986M57.7752 74.3645C57.6302 74.2894 57.4645 74.2639 57.3036 74.292C57.1427 74.3201 56.9955 74.4003 56.8846 74.5202C56.7712 74.6351 56.7019 74.7861 56.6887 74.947C56.6754 75.1078 56.7191 75.2681 56.8122 75.4M57.7752 74.3645L56.9606 75.2986M68.7998 75.3964L68.655 75.2986M68.7998 75.3964L68.655 75.2986M68.7998 75.3964C68.144 76.3844 67.2533 77.1943 66.2075 77.7535C65.1618 78.3127 63.9937 78.6037 62.8078 78.6005C61.6216 78.6047 60.453 78.3145 59.4066 77.756C58.3602 77.1974 57.4688 76.3879 56.8122 75.4M68.6513 75.2986C68.012 76.2623 67.1434 77.0523 66.1235 77.5976C65.1036 78.1429 63.9643 78.4266 62.8078 78.4231C61.6507 78.4272 60.5106 78.1438 59.4901 77.5985C58.4695 77.0531 57.6003 76.2628 56.9606 75.2986M56.8122 75.4L56.9606 75.2986M56.8122 75.4L56.9606 75.2986" stroke="url(#paint47_radial_124_472)" stroke-width="0.1"/>
</g>
<path d="M62.8078 75.7403C61.03 75.7519 59.2754 75.3359 57.692 74.5274C57.1851 74.2704 56.642 74.8388 56.9606 75.2986C57.6004 76.2628 58.4695 77.0531 59.4901 77.5984C60.5106 78.1438 61.6507 78.4272 62.8078 78.4231C63.9643 78.4266 65.1036 78.1429 66.1235 77.5976C67.1434 77.0522 68.012 76.2623 68.6513 75.2986C68.97 74.8207 68.4269 74.2704 67.92 74.5274C66.3383 75.3371 64.5846 75.7532 62.8078 75.7403V75.7403Z" fill="url(#paint48_radial_124_472)"/>
<g filter="url(#filter14_i_124_472)">
<path d="M76.5875 55.0202C75.8626 54.3343 74.9963 53.8153 74.0496 53.4996C72.9272 53.1484 71.5188 53.0542 69.5746 53.2932C69.4355 53.3022 69.2996 53.3394 69.1754 53.4027C69.0512 53.466 68.9412 53.554 68.8522 53.6612C68.7631 53.7685 68.6969 53.8928 68.6576 54.0265C68.6182 54.1602 68.6066 54.3006 68.6234 54.439C68.6401 54.5774 68.685 54.7109 68.7551 54.8313C68.8253 54.9518 68.9193 55.0567 69.0314 55.1396C69.1435 55.2224 69.2713 55.2816 69.407 55.3133C69.5428 55.3451 69.6835 55.3488 69.8208 55.3243C71.5984 55.1071 72.6882 55.2193 73.4341 55.4547C74.1654 55.6864 74.665 56.0593 75.2443 56.5662C75.4507 56.7333 75.714 56.8137 75.9785 56.7906C76.2431 56.7674 76.4883 56.6423 76.6625 56.4419C76.8367 56.2414 76.9263 55.9811 76.9123 55.7159C76.8983 55.4507 76.7819 55.2012 76.5875 55.0202V55.0202Z" fill="#7B4D24"/>
</g>
<g filter="url(#filter15_i_124_472)">
<path d="M50.2156 54.5929C52.1523 53.4598 54.4076 52.9942 56.6348 53.2678C56.8873 53.3194 57.1111 53.4643 57.2615 53.6736C57.412 53.8829 57.4781 54.1412 57.4465 54.397C57.415 54.6528 57.2882 54.8873 57.0915 55.0538C56.8947 55.2203 56.6425 55.3066 56.385 55.2953C54.6096 55.0771 52.8116 55.4459 51.2655 56.3453C51.1503 56.4156 51.038 56.4905 50.9288 56.5698L50.9179 56.577C50.7023 56.727 50.4372 56.7885 50.1776 56.7486C49.9179 56.7088 49.6834 56.5708 49.5226 56.363C49.3618 56.1553 49.2869 55.8937 49.3135 55.6323C49.34 55.371 49.466 55.1298 49.6652 54.9586L50.2156 54.5929V54.5929Z" fill="#7B4D24"/>
</g>
<path d="M71.6347 58.8977C74.0459 58.8977 76.0807 60.5632 76.6346 62.8079C76.6715 62.9575 76.6738 63.1136 76.6413 63.2643C76.6088 63.4149 76.5423 63.5562 76.447 63.6773C76.3517 63.7984 76.2301 63.8962 76.0913 63.9633C75.9525 64.0303 75.8003 64.0648 75.6462 64.0642H67.4095C67.2849 64.0641 67.1619 64.0366 67.0492 63.9838C66.9364 63.9309 66.8366 63.854 66.7568 63.7583C66.6771 63.6627 66.6193 63.5507 66.5875 63.4302C66.5558 63.3098 66.5509 63.1839 66.5731 63.0613C66.8038 61.8884 67.4347 60.832 68.3578 60.0726C69.281 59.3132 70.4393 58.8979 71.6347 58.8977V58.8977Z" fill="white"/>
<path d="M70.8671 59.9004C71.374 59.9003 71.874 60.0171 72.3283 60.2418C72.7827 60.4664 73.179 60.7929 73.4866 61.1957C73.7942 61.5986 74.0047 62.067 74.1017 62.5645C74.1987 63.062 74.1796 63.5751 74.0459 64.064H67.681C67.5502 63.5744 67.5335 63.0613 67.6324 62.5642C67.7312 62.0671 67.9429 61.5994 68.2511 61.1971C68.5593 60.7948 68.9558 60.4687 69.41 60.2438C69.8642 60.019 70.3639 59.9015 70.8707 59.9004H70.8671Z" fill="url(#paint49_radial_124_472)"/>
<path d="M68.9844 63.1952C68.9844 62.1453 69.8207 61.3126 70.8671 61.3126C71.1918 61.3098 71.5116 61.3913 71.7955 61.549C72.0793 61.7067 72.3174 61.9353 72.4866 62.2124C72.6558 62.4895 72.7503 62.8058 72.7609 63.1303C72.7715 63.4549 72.6978 63.7766 72.547 64.0642H69.2089C69.058 63.7997 68.9805 63.4997 68.9844 63.1952V63.1952Z" fill="black"/>
<g filter="url(#filter16_f_124_472)">
<path d="M70.6282 60.5995C70.8635 60.9109 70.3747 61.2947 69.8135 61.711C69.256 62.131 68.8432 62.4243 68.6079 62.1093C68.3726 61.7943 68.6332 61.2042 69.1908 60.7842C69.7484 60.3678 70.3928 60.2845 70.6282 60.5995Z" fill="#C7A7A3"/>
<path d="M70.6282 60.5995C70.8635 60.9109 70.3747 61.2947 69.8135 61.711C69.256 62.131 68.8432 62.4243 68.6079 62.1093C68.3726 61.7943 68.6332 61.2042 69.1908 60.7842C69.7484 60.3678 70.3928 60.2845 70.6282 60.5995Z" fill="url(#paint50_radial_124_472)"/>
</g>
<g filter="url(#filter17_f_124_472)">
<path d="M73.8034 62.7607C73.7046 62.1167 73.4057 61.52 72.9489 61.0554L71.9895 62.1054L72.4239 62.949L73.8034 62.7607Z" fill="url(#paint51_linear_124_472)"/>
</g>
<path d="M53.9809 58.8977C51.5697 58.8977 49.5313 60.5632 48.9773 62.8079C48.9405 62.9575 48.9382 63.1136 48.9707 63.2643C49.0032 63.4149 49.0696 63.5562 49.1649 63.6773C49.2602 63.7984 49.3819 63.8962 49.5206 63.9633C49.6594 64.0303 49.8116 64.0648 49.9658 64.0642H58.2025C58.3273 64.0646 58.4507 64.0376 58.564 63.9849C58.6772 63.9323 58.7774 63.8554 58.8576 63.7597C58.9378 63.664 58.9959 63.5518 59.0278 63.4311C59.0598 63.3104 59.0648 63.1842 59.0424 63.0613C58.8092 61.8896 58.1777 60.8348 57.255 60.0758C56.3324 59.3169 55.1756 58.9006 53.9809 58.8977V58.8977Z" fill="white"/>
<path d="M54.7449 59.9004C54.2383 59.9008 53.7387 60.0181 53.2848 60.243C52.8309 60.4679 52.435 60.7944 52.1279 61.1972C51.8207 61.6 51.6106 62.0682 51.5137 62.5654C51.4169 63.0626 51.4361 63.5754 51.5697 64.064H57.9346C58.0121 63.7808 58.0523 63.4887 58.054 63.1951C58.0483 62.3205 57.6974 61.4836 57.0776 60.8666C56.4578 60.2495 55.6194 59.9023 54.7449 59.9004V59.9004Z" fill="url(#paint52_radial_124_472)"/>
<path d="M56.6312 63.1952C56.6316 62.9476 56.5831 62.7022 56.4885 62.4734C56.3938 62.2445 56.2548 62.0366 56.0795 61.8616C55.9042 61.6867 55.6961 61.5481 55.467 61.4539C55.2379 61.3596 54.9925 61.3116 54.7449 61.3126C54.4202 61.3098 54.1003 61.3913 53.8165 61.549C53.5326 61.7067 53.2945 61.9353 53.1253 62.2124C52.9561 62.4895 52.8616 62.8058 52.851 63.1303C52.8404 63.4549 52.9141 63.7766 53.0649 64.0642H56.4067C56.551 63.7971 56.628 63.4988 56.6312 63.1952V63.1952Z" fill="black"/>
<g filter="url(#filter18_f_124_472)">
<path d="M57.7535 62.8077C57.7535 61.7433 56.8882 61.0337 56.6529 60.8201L55.5885 61.8483L56.2438 63.1843L57.7535 62.8077V62.8077Z" fill="url(#paint53_linear_124_472)"/>
</g>
<g filter="url(#filter19_f_124_472)">
<path d="M54.0882 61.9523C54.7897 61.5807 55.2058 60.9915 55.0176 60.6364C54.8295 60.2812 54.1083 60.2946 53.4068 60.6662C52.7054 61.0378 52.2892 61.627 52.4774 61.9822C52.6656 62.3373 53.3867 62.324 54.0882 61.9523Z" fill="#C7A7A3" fill-opacity="0.9"/>
<path d="M54.0882 61.9523C54.7897 61.5807 55.2058 60.9915 55.0176 60.6364C54.8295 60.2812 54.1083 60.2946 53.4068 60.6662C52.7054 61.0378 52.2892 61.627 52.4774 61.9822C52.6656 62.3373 53.3867 62.324 54.0882 61.9523Z" fill="url(#paint54_radial_124_472)"/>
</g>
<path d="M80.9756 69.9946C81.2182 66.0663 81.4535 62.1417 81.6599 58.2134C83.0931 58.4671 84.3832 59.238 85.2856 60.3799C86.188 61.5218 86.6399 62.9552 86.5555 64.4082C86.4711 65.8612 85.8563 67.2326 84.8278 68.2624C83.7993 69.2921 82.4285 69.9085 80.9756 69.9946V69.9946Z" fill="url(#paint55_radial_124_472)"/>
<g filter="url(#filter20_i_124_472)">
<path d="M44.1476 58.1843C42.6878 58.393 41.3579 59.1371 40.4162 60.2718C39.4746 61.4066 38.9886 62.851 39.0527 64.3241C39.1168 65.7973 39.7265 67.194 40.7631 68.2427C41.7998 69.2913 43.1893 69.917 44.6617 69.9981C44.4095 66.0641 44.2381 62.1254 44.1476 58.1843V58.1843Z" fill="url(#paint56_radial_124_472)"/>
</g>
<g filter="url(#filter21_f_124_472)">
<path d="M43.9882 60.6248C43.1837 60.8098 42.4695 61.271 41.9697 61.9281C41.47 62.5852 41.2164 63.3967 41.253 64.2214C41.2895 65.0461 41.614 65.832 42.17 66.4422C42.726 67.0525 43.4782 67.4486 44.296 67.5617C44.1655 65.2507 44.0629 62.9382 43.9882 60.6248V60.6248Z" fill="url(#paint57_linear_124_472)"/>
</g>
<g filter="url(#filter22_f_124_472)">
<path d="M81.4065 67.6159C81.5513 65.2734 81.6889 62.9345 81.8156 60.592C82.7011 60.7058 83.5106 61.1512 84.0806 61.8384C84.6506 62.5256 84.9387 63.4034 84.8868 64.2948C84.8348 65.1861 84.4468 66.0245 83.8008 66.6409C83.1549 67.2573 82.2992 67.6057 81.4065 67.6159V67.6159Z" fill="url(#paint58_radial_124_472)"/>
</g>
<g filter="url(#filter23_f_124_472)">
<path d="M50.3531 55.6247C51.3017 54.9441 53.6659 53.7457 56.4646 54.2163" stroke="#945F39" stroke-width="0.1" stroke-linecap="round"/>
</g>
<g filter="url(#filter24_f_124_472)">
<path d="M75.9539 55.4835C75.1574 54.6254 73.072 53.5791 69.9221 54.0353" stroke="#945F39" stroke-width="0.1" stroke-linecap="round"/>
</g>
<path d="M85.418 42.7029H41.0303V52.2973H85.418V42.7029Z" fill="url(#paint59_radial_124_472)"/>
<path d="M85.418 42.7029H41.0303V52.2973H85.418V42.7029Z" fill="url(#paint60_linear_124_472)"/>
<path d="M37.5473 62.0766C38.3076 60.375 44.716 47.3773 62.9997 47.3773C83.2747 47.3773 88.4883 62.0766 88.4883 62.0766H90.1899C91.1675 62.0766 91.9278 61.2801 91.9278 60.3388V48.6082C91.9278 40.0638 85.0125 33.1486 76.4681 33.1486H49.4951C47.4657 33.1404 45.4547 33.5336 43.5777 34.3054C41.7007 35.0771 39.9949 36.2123 38.5582 37.6457C37.1214 39.079 35.9823 40.7822 35.2061 42.6574C34.4299 44.5325 34.032 46.5426 34.0354 48.572V60.3026C34.0354 61.2801 34.7957 62.0766 35.7733 62.0766H37.5473Z" fill="url(#paint61_radial_124_472)"/>
<path d="M37.5473 62.0766C38.3076 60.375 44.716 47.3773 62.9997 47.3773C83.2747 47.3773 88.4883 62.0766 88.4883 62.0766H90.1899C91.1675 62.0766 91.9278 61.2801 91.9278 60.3388V48.6082C91.9278 40.0638 85.0125 33.1486 76.4681 33.1486H49.4951C47.4657 33.1404 45.4547 33.5336 43.5777 34.3054C41.7007 35.0771 39.9949 36.2123 38.5582 37.6457C37.1214 39.079 35.9823 40.7822 35.2061 42.6574C34.4299 44.5325 34.032 46.5426 34.0354 48.572V60.3026C34.0354 61.2801 34.7957 62.0766 35.7733 62.0766H37.5473Z" fill="url(#paint62_radial_124_472)"/>
<path d="M37.5473 62.0766C38.3076 60.375 44.716 47.3773 62.9997 47.3773C83.2747 47.3773 88.4883 62.0766 88.4883 62.0766H90.1899C91.1675 62.0766 91.9278 61.2801 91.9278 60.3388V48.6082C91.9278 40.0638 85.0125 33.1486 76.4681 33.1486H49.4951C47.4657 33.1404 45.4547 33.5336 43.5777 34.3054C41.7007 35.0771 39.9949 36.2123 38.5582 37.6457C37.1214 39.079 35.9823 40.7822 35.2061 42.6574C34.4299 44.5325 34.032 46.5426 34.0354 48.572V60.3026C34.0354 61.2801 34.7957 62.0766 35.7733 62.0766H37.5473Z" fill="url(#paint63_linear_124_472)"/>
<g filter="url(#filter25_ii_124_472)">
<path d="M84.6106 53.4235C82.1813 51.1225 79.3453 49.2932 76.2472 48.0289C72.3008 46.3996 67.8476 45.5669 62.996 45.5669C58.579 45.5669 54.4516 46.291 50.7586 47.7392C47.7174 48.934 44.9296 50.5994 42.5038 52.7356C38.304 56.3561 36.3851 60.2301 35.8782 61.3162C35.7696 61.5697 35.7334 61.8231 35.7334 62.0765H37.5437C38.304 60.3749 44.7123 47.3772 62.996 47.3772C83.271 47.3772 88.4846 62.0765 88.4846 62.0765H90.2949C90.2949 61.8593 90.2587 61.6783 90.1863 61.461C90.1501 61.28 88.7018 57.3336 84.6106 53.4235V53.4235Z" fill="url(#paint64_radial_124_472)"/>
</g>
<g filter="url(#filter26_i_124_472)">
<path d="M46.7507 41.5807H78.8649C79.9872 41.5807 80.8924 40.6755 80.8924 39.5532V33.6879C79.4442 33.2534 77.8873 33 76.2943 33H49.3213C47.7283 33 46.1714 33.2534 44.7232 33.6879V39.5532C44.7232 40.6755 45.6283 41.5807 46.7507 41.5807V41.5807Z" fill="#C4FFFF"/>
</g>
<g filter="url(#filter27_i_124_472)">
<path d="M68.0033 33L59.133 41.5807H78.8649C79.9872 41.5807 80.8924 40.6755 80.8924 39.5532V33.6879C79.4442 33.2534 77.8873 33 76.2943 33H68.0033Z" fill="#8CF5FF"/>
</g>
<path d="M44.1548 53.7024C43.1647 54.5249 42.2366 55.4191 41.3778 56.378V59.3468C42.1707 58.7386 43.1157 58.3294 44.1476 58.1846C44.1258 57.0369 44.1114 55.8892 44.1114 54.7379C44.1114 54.3903 44.1295 54.0463 44.1548 53.7024V53.7024Z" fill="url(#paint65_radial_124_472)"/>
</g>
<defs>
<filter id="filter0_i_124_472" x="23" y="81.8772" width="80.6156" height="52.9978" filterUnits="userSpaceOnUse" color-interpolation-filters="sRGB">
<feFlood flood-opacity="0" result="BackgroundImageFix"/>
<feBlend mode="normal" in="SourceGraphic" in2="BackgroundImageFix" result="shape"/>
<feColorMatrix in="SourceAlpha" type="matrix" values="0 0 0 0 0 0 0 0 0 0 0 0 0 0 0 0 0 0 127 0" result="hardAlpha"/>
<feOffset dx="1" dy="0.5"/>
<feGaussianBlur stdDeviation="1"/>
<feComposite in2="hardAlpha" operator="arithmetic" k2="-1" k3="1"/>
<feColorMatrix type="matrix" values="0 0 0 0 0.211765 0 0 0 0 0.431373 0 0 0 0 0.631373 0 0 0 1 0"/>
<feBlend mode="normal" in2="shape" result="effect1_innerShadow_124_472"/>
</filter>
<filter id="filter1_f_124_472" x="47.4194" y="81.8911" width="14.6469" height="24.1584" filterUnits="userSpaceOnUse" color-interpolation-filters="sRGB">
<feFlood flood-opacity="0" result="BackgroundImageFix"/>
<feBlend mode="normal" in="SourceGraphic" in2="BackgroundImageFix" result="shape"/>
<feGaussianBlur stdDeviation="0.5" result="effect1_foregroundBlur_124_472"/>
</filter>
<filter id="filter2_f_124_472" x="62.3074" y="82.7092" width="14.6437" height="24.1323" filterUnits="userSpaceOnUse" color-interpolation-filters="sRGB">
<feFlood flood-opacity="0" result="BackgroundImageFix"/>
<feBlend mode="normal" in="SourceGraphic" in2="BackgroundImageFix" result="shape"/>
<feGaussianBlur stdDeviation="0.5" result="effect1_foregroundBlur_124_472"/>
</filter>
<filter id="filter3_i_124_472" x="48.5077" y="81.8062" width="12.7469" height="22.2555" filterUnits="userSpaceOnUse" color-interpolation-filters="sRGB">
<feFlood flood-opacity="0" result="BackgroundImageFix"/>
<feBlend mode="normal" in="SourceGraphic" in2="BackgroundImageFix" result="shape"/>
<feColorMatrix in="SourceAlpha" type="matrix" values="0 0 0 0 0 0 0 0 0 0 0 0 0 0 0 0 0 0 127 0" result="hardAlpha"/>
<feOffset dx="-0.1" dy="-0.1"/>
<feGaussianBlur stdDeviation="0.15"/>
<feComposite in2="hardAlpha" operator="arithmetic" k2="-1" k3="1"/>
<feColorMatrix type="matrix" values="0 0 0 0 0.137255 0 0 0 0 0.337255 0 0 0 0 0.811765 0 0 0 1 0"/>
<feBlend mode="normal" in2="shape" result="effect1_innerShadow_124_472"/>
</filter>
<filter id="filter4_i_124_472" x="95.3745" y="77.2068" width="10.1479" height="30.5401" filterUnits="userSpaceOnUse" color-interpolation-filters="sRGB">
<feFlood flood-opacity="0" result="BackgroundImageFix"/>
<feBlend mode="normal" in="SourceGraphic" in2="BackgroundImageFix" result="shape"/>
<feColorMatrix in="SourceAlpha" type="matrix" values="0 0 0 0 0 0 0 0 0 0 0 0 0 0 0 0 0 0 127 0" result="hardAlpha"/>
<feOffset dx="0.3" dy="0.2"/>
<feGaussianBlur stdDeviation="0.375"/>
<feComposite in2="hardAlpha" operator="arithmetic" k2="-1" k3="1"/>
<feColorMatrix type="matrix" values="0 0 0 0 0.505882 0 0 0 0 0.501961 0 0 0 0 0.529412 0 0 0 1 0"/>
<feBlend mode="normal" in2="shape" result="effect1_innerShadow_124_472"/>
</filter>
<filter id="filter5_i_124_472" x="98.6589" y="71.5855" width="13.1747" height="13.2097" filterUnits="userSpaceOnUse" color-interpolation-filters="sRGB">
<feFlood flood-opacity="0" result="BackgroundImageFix"/>
<feBlend mode="normal" in="SourceGraphic" in2="BackgroundImageFix" result="shape"/>
<feColorMatrix in="SourceAlpha" type="matrix" values="0 0 0 0 0 0 0 0 0 0 0 0 0 0 0 0 0 0 127 0" result="hardAlpha"/>
<feOffset dx="0.05" dy="-0.05"/>
<feGaussianBlur stdDeviation="0.05"/>
<feComposite in2="hardAlpha" operator="arithmetic" k2="-1" k3="1"/>
<feColorMatrix type="matrix" values="0 0 0 0 0.447059 0 0 0 0 0.870588 0 0 0 0 1 0 0 0 1 0"/>
<feBlend mode="normal" in2="shape" result="effect1_innerShadow_124_472"/>
</filter>
<filter id="filter6_i_124_472" x="89.5687" y="114.652" width="15.8036" height="19.7225" filterUnits="userSpaceOnUse" color-interpolation-filters="sRGB">
<feFlood flood-opacity="0" result="BackgroundImageFix"/>
<feBlend mode="normal" in="SourceGraphic" in2="BackgroundImageFix" result="shape"/>
<feColorMatrix in="SourceAlpha" type="matrix" values="0 0 0 0 0 0 0 0 0 0 0 0 0 0 0 0 0 0 127 0" result="hardAlpha"/>
<feOffset dx="0.15" dy="-0.15"/>
<feGaussianBlur stdDeviation="0.5"/>
<feComposite in2="hardAlpha" operator="arithmetic" k2="-1" k3="1"/>
<feColorMatrix type="matrix" values="0 0 0 0 0.658824 0 0 0 0 0.443137 0 0 0 0 0.411765 0 0 0 1 0"/>
<feBlend mode="normal" in2="shape" result="effect1_innerShadow_124_472"/>
</filter>
<filter id="filter7_f_124_472" x="91.6727" y="119.75" width="6.80611" height="0.300098" filterUnits="userSpaceOnUse" color-interpolation-filters="sRGB">
<feFlood flood-opacity="0" result="BackgroundImageFix"/>
<feBlend mode="normal" in="SourceGraphic" in2="BackgroundImageFix" result="shape"/>
<feGaussianBlur stdDeviation="0.05" result="effect1_foregroundBlur_124_472"/>
</filter>
<filter id="filter8_f_124_472" x="91.3903" y="124.475" width="6.8061" height="0.300098" filterUnits="userSpaceOnUse" color-interpolation-filters="sRGB">
<feFlood flood-opacity="0" result="BackgroundImageFix"/>
<feBlend mode="normal" in="SourceGraphic" in2="BackgroundImageFix" result="shape"/>
<feGaussianBlur stdDeviation="0.05" result="effect1_foregroundBlur_124_472"/>
</filter>
<filter id="filter9_f_124_472" x="91.6727" y="129.2" width="6.80611" height="0.300098" filterUnits="userSpaceOnUse" color-interpolation-filters="sRGB">
<feFlood flood-opacity="0" result="BackgroundImageFix"/>
<feBlend mode="normal" in="SourceGraphic" in2="BackgroundImageFix" result="shape"/>
<feGaussianBlur stdDeviation="0.05" result="effect1_foregroundBlur_124_472"/>
</filter>
<filter id="filter10_ii_124_472" x="44.1186" y="42.2649" width="38.476" height="45.7608" filterUnits="userSpaceOnUse" color-interpolation-filters="sRGB">
<feFlood flood-opacity="0" result="BackgroundImageFix"/>
<feBlend mode="normal" in="SourceGraphic" in2="BackgroundImageFix" result="shape"/>
<feColorMatrix in="SourceAlpha" type="matrix" values="0 0 0 0 0 0 0 0 0 0 0 0 0 0 0 0 0 0 127 0" result="hardAlpha"/>
<feOffset dx="0.75"/>
<feGaussianBlur stdDeviation="0.6"/>
<feComposite in2="hardAlpha" operator="arithmetic" k2="-1" k3="1"/>
<feColorMatrix type="matrix" values="0 0 0 0 0.843137 0 0 0 0 0.611765 0 0 0 0 0.498039 0 0 0 1 0"/>
<feBlend mode="normal" in2="shape" result="effect1_innerShadow_124_472"/>
<feColorMatrix in="SourceAlpha" type="matrix" values="0 0 0 0 0 0 0 0 0 0 0 0 0 0 0 0 0 0 127 0" result="hardAlpha"/>
<feOffset dy="0.2"/>
<feGaussianBlur stdDeviation="0.375"/>
<feComposite in2="hardAlpha" operator="arithmetic" k2="-1" k3="1"/>
<feColorMatrix type="matrix" values="0 0 0 0 0.776471 0 0 0 0 0.54902 0 0 0 0 0.423529 0 0 0 1 0"/>
<feBlend mode="normal" in2="effect1_innerShadow_124_472" result="effect2_innerShadow_124_472"/>
</filter>
<filter id="filter11_f_124_472" x="57.5774" y="61.5688" width="8.92927" height="12.7058" filterUnits="userSpaceOnUse" color-interpolation-filters="sRGB">
<feFlood flood-opacity="0" result="BackgroundImageFix"/>
<feBlend mode="normal" in="SourceGraphic" in2="BackgroundImageFix" result="shape"/>
<feGaussianBlur stdDeviation="0.5" result="effect1_foregroundBlur_124_472"/>
</filter>
<filter id="filter12_f_124_472" x="59.2425" y="61.6354" width="7.1283" height="10.9031" filterUnits="userSpaceOnUse" color-interpolation-filters="sRGB">
<feFlood flood-opacity="0" result="BackgroundImageFix"/>
<feBlend mode="normal" in="SourceGraphic" in2="BackgroundImageFix" result="shape"/>
<feGaussianBlur stdDeviation="0.05" result="effect1_foregroundBlur_124_472"/>
</filter>
<filter id="filter13_f_124_472" x="56.5363" y="74.1285" width="12.5423" height="4.62212" filterUnits="userSpaceOnUse" color-interpolation-filters="sRGB">
<feFlood flood-opacity="0" result="BackgroundImageFix"/>
<feBlend mode="normal" in="SourceGraphic" in2="BackgroundImageFix" result="shape"/>
<feGaussianBlur stdDeviation="0.05" result="effect1_foregroundBlur_124_472"/>
</filter>
<filter id="filter14_i_124_472" x="68.6159" y="52.9609" width="8.39779" height="3.83354" filterUnits="userSpaceOnUse" color-interpolation-filters="sRGB">
<feFlood flood-opacity="0" result="BackgroundImageFix"/>
<feBlend mode="normal" in="SourceGraphic" in2="BackgroundImageFix" result="shape"/>
<feColorMatrix in="SourceAlpha" type="matrix" values="0 0 0 0 0 0 0 0 0 0 0 0 0 0 0 0 0 0 127 0" result="hardAlpha"/>
<feOffset dx="0.1" dy="-0.2"/>
<feGaussianBlur stdDeviation="0.125"/>
<feComposite in2="hardAlpha" operator="arithmetic" k2="-1" k3="1"/>
<feColorMatrix type="matrix" values="0 0 0 0 0.458824 0 0 0 0 0.25098 0 0 0 0 0.184314 0 0 0 1 0"/>
<feBlend mode="normal" in2="shape" result="effect1_innerShadow_124_472"/>
</filter>
<filter id="filter15_i_124_472" x="49.3082" y="52.9914" width="8.24598" height="3.76909" filterUnits="userSpaceOnUse" color-interpolation-filters="sRGB">
<feFlood flood-opacity="0" result="BackgroundImageFix"/>
<feBlend mode="normal" in="SourceGraphic" in2="BackgroundImageFix" result="shape"/>
<feColorMatrix in="SourceAlpha" type="matrix" values="0 0 0 0 0 0 0 0 0 0 0 0 0 0 0 0 0 0 127 0" result="hardAlpha"/>
<feOffset dx="0.1" dy="-0.2"/>
<feGaussianBlur stdDeviation="0.125"/>
<feComposite in2="hardAlpha" operator="arithmetic" k2="-1" k3="1"/>
<feColorMatrix type="matrix" values="0 0 0 0 0.458824 0 0 0 0 0.25098 0 0 0 0 0.184314 0 0 0 1 0"/>
<feBlend mode="normal" in2="shape" result="effect1_innerShadow_124_472"/>
</filter>
<filter id="filter16_f_124_472" x="68.4213" y="60.3084" width="2.36739" height="2.03325" filterUnits="userSpaceOnUse" color-interpolation-filters="sRGB">
<feFlood flood-opacity="0" result="BackgroundImageFix"/>
<feBlend mode="normal" in="SourceGraphic" in2="BackgroundImageFix" result="shape"/>
<feGaussianBlur stdDeviation="0.05" result="effect1_foregroundBlur_124_472"/>
</filter>
<filter id="filter17_f_124_472" x="71.7895" y="60.8554" width="2.21388" height="2.29355" filterUnits="userSpaceOnUse" color-interpolation-filters="sRGB">
<feFlood flood-opacity="0" result="BackgroundImageFix"/>
<feBlend mode="normal" in="SourceGraphic" in2="BackgroundImageFix" result="shape"/>
<feGaussianBlur stdDeviation="0.1" result="effect1_foregroundBlur_124_472"/>
</filter>
<filter id="filter18_f_124_472" x="55.3885" y="60.6201" width="2.56508" height="2.76426" filterUnits="userSpaceOnUse" color-interpolation-filters="sRGB">
<feFlood flood-opacity="0" result="BackgroundImageFix"/>
<feBlend mode="normal" in="SourceGraphic" in2="BackgroundImageFix" result="shape"/>
<feGaussianBlur stdDeviation="0.1" result="effect1_foregroundBlur_124_472"/>
</filter>
<filter id="filter19_f_124_472" x="52.3322" y="60.2784" width="2.83068" height="2.06157" filterUnits="userSpaceOnUse" color-interpolation-filters="sRGB">
<feFlood flood-opacity="0" result="BackgroundImageFix"/>
<feBlend mode="normal" in="SourceGraphic" in2="BackgroundImageFix" result="shape"/>
<feGaussianBlur stdDeviation="0.05" result="effect1_foregroundBlur_124_472"/>
</filter>
<filter id="filter20_i_124_472" x="39.0471" y="58.1843" width="5.71459" height="11.8137" filterUnits="userSpaceOnUse" color-interpolation-filters="sRGB">
<feFlood flood-opacity="0" result="BackgroundImageFix"/>
<feBlend mode="normal" in="SourceGraphic" in2="BackgroundImageFix" result="shape"/>
<feColorMatrix in="SourceAlpha" type="matrix" values="0 0 0 0 0 0 0 0 0 0 0 0 0 0 0 0 0 0 127 0" result="hardAlpha"/>
<feOffset dx="0.1"/>
<feGaussianBlur stdDeviation="0.1"/>
<feComposite in2="hardAlpha" operator="arithmetic" k2="-1" k3="1"/>
<feColorMatrix type="matrix" values="0 0 0 0 0.811765 0 0 0 0 0.592157 0 0 0 0 0.509804 0 0 0 1 0"/>
<feBlend mode="normal" in2="shape" result="effect1_innerShadow_124_472"/>
</filter>
<filter id="filter21_f_124_472" x="40.9995" y="60.3748" width="3.5465" height="7.43701" filterUnits="userSpaceOnUse" color-interpolation-filters="sRGB">
<feFlood flood-opacity="0" result="BackgroundImageFix"/>
<feBlend mode="normal" in="SourceGraphic" in2="BackgroundImageFix" result="shape"/>
<feGaussianBlur stdDeviation="0.125" result="effect1_foregroundBlur_124_472"/>
</filter>
<filter id="filter22_f_124_472" x="81.1565" y="60.342" width="3.98626" height="7.52393" filterUnits="userSpaceOnUse" color-interpolation-filters="sRGB">
<feFlood flood-opacity="0" result="BackgroundImageFix"/>
<feBlend mode="normal" in="SourceGraphic" in2="BackgroundImageFix" result="shape"/>
<feGaussianBlur stdDeviation="0.125" result="effect1_foregroundBlur_124_472"/>
</filter>
<filter id="filter23_f_124_472" x="50.1031" y="53.8596" width="6.61148" height="2.01523" filterUnits="userSpaceOnUse" color-interpolation-filters="sRGB">
<feFlood flood-opacity="0" result="BackgroundImageFix"/>
<feBlend mode="normal" in="SourceGraphic" in2="BackgroundImageFix" result="shape"/>
<feGaussianBlur stdDeviation="0.1" result="effect1_foregroundBlur_124_472"/>
</filter>
<filter id="filter24_f_124_472" x="69.6721" y="53.6745" width="6.53182" height="2.05894" filterUnits="userSpaceOnUse" color-interpolation-filters="sRGB">
<feFlood flood-opacity="0" result="BackgroundImageFix"/>
<feBlend mode="normal" in="SourceGraphic" in2="BackgroundImageFix" result="shape"/>
<feGaussianBlur stdDeviation="0.1" result="effect1_foregroundBlur_124_472"/>
</filter>
<filter id="filter25_ii_124_472" x="35.6334" y="45.4669" width="54.6615" height="16.7095" filterUnits="userSpaceOnUse" color-interpolation-filters="sRGB">
<feFlood flood-opacity="0" result="BackgroundImageFix"/>
<feBlend mode="normal" in="SourceGraphic" in2="BackgroundImageFix" result="shape"/>
<feColorMatrix in="SourceAlpha" type="matrix" values="0 0 0 0 0 0 0 0 0 0 0 0 0 0 0 0 0 0 127 0" result="hardAlpha"/>
<feOffset dx="-0.1" dy="0.1"/>
<feGaussianBlur stdDeviation="0.125"/>
<feComposite in2="hardAlpha" operator="arithmetic" k2="-1" k3="1"/>
<feColorMatrix type="matrix" values="0 0 0 0 0.588235 0 0 0 0 0.47451 0 0 0 0 0.827451 0 0 0 1 0"/>
<feBlend mode="normal" in2="shape" result="effect1_innerShadow_124_472"/>
<feColorMatrix in="SourceAlpha" type="matrix" values="0 0 0 0 0 0 0 0 0 0 0 0 0 0 0 0 0 0 127 0" result="hardAlpha"/>
<feOffset dy="-0.1"/>
<feGaussianBlur stdDeviation="0.125"/>
<feComposite in2="hardAlpha" operator="arithmetic" k2="-1" k3="1"/>
<feColorMatrix type="matrix" values="0 0 0 0 0.423529 0 0 0 0 0.329412 0 0 0 0 0.627451 0 0 0 1 0"/>
<feBlend mode="normal" in2="effect1_innerShadow_124_472" result="effect2_innerShadow_124_472"/>
</filter>
<filter id="filter26_i_124_472" x="44.7232" y="33" width="36.1692" height="8.68057" filterUnits="userSpaceOnUse" color-interpolation-filters="sRGB">
<feFlood flood-opacity="0" result="BackgroundImageFix"/>
<feBlend mode="normal" in="SourceGraphic" in2="BackgroundImageFix" result="shape"/>
<feColorMatrix in="SourceAlpha" type="matrix" values="0 0 0 0 0 0 0 0 0 0 0 0 0 0 0 0 0 0 127 0" result="hardAlpha"/>
<feOffset dy="0.1"/>
<feGaussianBlur stdDeviation="0.375"/>
<feComposite in2="hardAlpha" operator="arithmetic" k2="-1" k3="1"/>
<feColorMatrix type="matrix" values="0 0 0 0 0.670588 0 0 0 0 0.843137 0 0 0 0 0.835294 0 0 0 1 0"/>
<feBlend mode="normal" in2="shape" result="effect1_innerShadow_124_472"/>
</filter>
<filter id="filter27_i_124_472" x="58.833" y="33" width="22.0594" height="8.68057" filterUnits="userSpaceOnUse" color-interpolation-filters="sRGB">
<feFlood flood-opacity="0" result="BackgroundImageFix"/>
<feBlend mode="normal" in="SourceGraphic" in2="BackgroundImageFix" result="shape"/>
<feColorMatrix in="SourceAlpha" type="matrix" values="0 0 0 0 0 0 0 0 0 0 0 0 0 0 0 0 0 0 127 0" result="hardAlpha"/>
<feOffset dx="-0.3" dy="0.1"/>
<feGaussianBlur stdDeviation="0.375"/>
<feComposite in2="hardAlpha" operator="arithmetic" k2="-1" k3="1"/>
<feColorMatrix type="matrix" values="0 0 0 0 0.552941 0 0 0 0 0.890196 0 0 0 0 0.92549 0 0 0 1 0"/>
<feBlend mode="normal" in2="shape" result="effect1_innerShadow_124_472"/>
</filter>
<linearGradient id="paint0_linear_124_472" x1="32.4749" y1="53.3945" x2="35.0202" y2="50.0274" gradientUnits="userSpaceOnUse">
<stop stop-color="#3A2252"/>
<stop offset="1" stop-color="#31263F"/>
</linearGradient>
<linearGradient id="paint1_linear_124_472" x1="90.7873" y1="47.4822" x2="90.7873" y2="54.7595" gradientUnits="userSpaceOnUse">
<stop stop-color="#534065"/>
<stop offset="1" stop-color="#38234F"/>
</linearGradient>
<radialGradient id="paint2_radial_124_472" cx="0" cy="0" r="1" gradientUnits="userSpaceOnUse" gradientTransform="translate(93.8539 49.1802) rotate(90) scale(4.75195 1.72573)">
<stop offset="0.167" stop-color="#675878"/>
<stop offset="1" stop-color="#675878" stop-opacity="0"/>
</radialGradient>
<linearGradient id="paint3_linear_124_472" x1="62.8114" y1="85.2733" x2="62.8114" y2="136.413" gradientUnits="userSpaceOnUse">
<stop stop-color="#428EF7"/>
<stop offset="1" stop-color="#3E80FF"/>
</linearGradient>
<radialGradient id="paint4_radial_124_472" cx="0" cy="0" r="1" gradientUnits="userSpaceOnUse" gradientTransform="translate(83.3869 134.375) rotate(-90) scale(23.5335 21.2706)">
<stop stop-color="#3878E5"/>
<stop offset="1" stop-color="#3578E5" stop-opacity="0"/>
</radialGradient>
<radialGradient id="paint5_radial_124_472" cx="0" cy="0" r="1" gradientUnits="userSpaceOnUse" gradientTransform="translate(60.6361 95.4854) rotate(137.578) scale(12.7095 10.3289)">
<stop stop-color="#4680DB"/>
<stop offset="1" stop-color="#4680DB" stop-opacity="0"/>
</radialGradient>
<radialGradient id="paint6_radial_124_472" cx="0" cy="0" r="1" gradientUnits="userSpaceOnUse" gradientTransform="translate(56.9136 86.7433) rotate(116.909) scale(6.99992 11.6841)">
<stop offset="0.316" stop-color="#26386D"/>
<stop offset="1" stop-color="#3877CC" stop-opacity="0"/>
</radialGradient>
<linearGradient id="paint7_linear_124_472" x1="47.9745" y1="91.7215" x2="50.6609" y2="91.8048" gradientUnits="userSpaceOnUse">
<stop offset="0.344" stop-color="#547EB3"/>
<stop offset="1" stop-color="#4D79B0" stop-opacity="0"/>
</linearGradient>
<linearGradient id="paint8_linear_124_472" x1="77.547" y1="94.3208" x2="74.6759" y2="94.3208" gradientUnits="userSpaceOnUse">
<stop stop-color="#4F8DD8"/>
<stop offset="1" stop-color="#3D78D0" stop-opacity="0"/>
</linearGradient>
<linearGradient id="paint9_linear_124_472" x1="70.0923" y1="100.943" x2="71.9315" y2="98.1115" gradientUnits="userSpaceOnUse">
<stop stop-color="#1F54C5"/>
<stop offset="1" stop-color="#3D78D0" stop-opacity="0"/>
</linearGradient>
<radialGradient id="paint10_radial_124_472" cx="0" cy="0" r="1" gradientUnits="userSpaceOnUse" gradientTransform="translate(69.7809 83.8213) rotate(90) scale(7.03658 6.7359)">
<stop offset="0.368" stop-color="#2A3765"/>
<stop offset="1" stop-color="#2A3765" stop-opacity="0"/>
</radialGradient>
<radialGradient id="paint11_radial_124_472" cx="0" cy="0" r="1" gradientUnits="userSpaceOnUse" gradientTransform="translate(66.1749 88.9298) rotate(110.934) scale(9.59446 6.4296)">
<stop offset="0.307" stop-color="#465E8A"/>
<stop offset="1" stop-color="#465E8A" stop-opacity="0"/>
</radialGradient>
<linearGradient id="paint12_linear_124_472" x1="39.3033" y1="61.7759" x2="87.851" y2="61.7759" gradientUnits="userSpaceOnUse">
<stop offset="0.006" stop-color="#251229"/>
<stop offset="1" stop-color="#24132C"/>
</linearGradient>
<linearGradient id="paint13_linear_124_472" x1="74.5782" y1="62.0764" x2="74.5782" y2="61.03" gradientUnits="userSpaceOnUse">
<stop stop-color="#513A64"/>
<stop offset="1" stop-color="#513A64" stop-opacity="0"/>
</linearGradient>
<radialGradient id="paint14_radial_124_472" cx="0" cy="0" r="1" gradientUnits="userSpaceOnUse" gradientTransform="translate(33.6046 134.375) rotate(-90) scale(36.8842 14.2559)">
<stop stop-color="#4086F6"/>
<stop offset="1" stop-color="#6899F0"/>
</radialGradient>
<linearGradient id="paint15_linear_124_472" x1="37.5908" y1="126.569" x2="28.9667" y2="126.569" gradientUnits="userSpaceOnUse">
<stop stop-color="#2869C1"/>
<stop offset="1" stop-color="#3E6FC6" stop-opacity="0"/>
</linearGradient>
<radialGradient id="paint16_radial_124_472" cx="0" cy="0" r="1" gradientUnits="userSpaceOnUse" gradientTransform="translate(96.5114 98.3978) rotate(90) scale(31.2271 13.4073)">
<stop offset="0.141" stop-color="#5DA7F2"/>
<stop offset="1" stop-color="#4F94D3" stop-opacity="0"/>
</radialGradient>
<radialGradient id="paint17_radial_124_472" cx="0" cy="0" r="1" gradientUnits="userSpaceOnUse" gradientTransform="translate(62.8078 103.376) rotate(-90) scale(20.8747 24.811)">
<stop offset="0.469" stop-color="#655676" stop-opacity="0"/>
<stop offset="1" stop-color="#655676"/>
</radialGradient>
<radialGradient id="paint18_radial_124_472" cx="0" cy="0" r="1" gradientUnits="userSpaceOnUse" gradientTransform="translate(62.8078 86.8554) rotate(90) scale(5.63265 6.68651)">
<stop offset="0.181" stop-color="#C07A8E"/>
<stop offset="0.719" stop-color="#C48686"/>
<stop offset="1" stop-color="#7B4446"/>
</radialGradient>
<radialGradient id="paint19_radial_124_472" cx="0" cy="0" r="1" gradientUnits="userSpaceOnUse" gradientTransform="translate(106.479 111.743) rotate(145.688) scale(8.76414 8.60568)">
<stop offset="0.464" stop-color="#DEAF8E"/>
<stop offset="1" stop-color="#B27959"/>
</radialGradient>
<radialGradient id="paint20_radial_124_472" cx="0" cy="0" r="1" gradientUnits="userSpaceOnUse" gradientTransform="translate(104.339 111.196) rotate(-37.2861) scale(3.58668 2.74859)">
<stop offset="0.132" stop-color="#E6BEA1"/>
<stop offset="1" stop-color="#E6BEA1" stop-opacity="0"/>
</radialGradient>
<radialGradient id="paint21_radial_124_472" cx="0" cy="0" r="1" gradientUnits="userSpaceOnUse" gradientTransform="translate(101.008 84.0829) rotate(-45) scale(3.60015 1.16853)">
<stop offset="0.383" stop-color="#B0B0B0"/>
<stop offset="1" stop-color="#B0B0B0" stop-opacity="0"/>
</radialGradient>
<linearGradient id="paint22_linear_124_472" x1="100.914" y1="113.611" x2="95.0957" y2="113.611" gradientUnits="userSpaceOnUse">
<stop stop-color="#675479"/>
<stop offset="1" stop-color="#32263F"/>
</linearGradient>
<radialGradient id="paint23_radial_124_472" cx="0" cy="0" r="1" gradientUnits="userSpaceOnUse" gradientTransform="translate(100.914 108.749) rotate(180) scale(5.27777 0.93341)">
<stop stop-color="#6E5981"/>
<stop offset="1" stop-color="#624B78" stop-opacity="0"/>
</radialGradient>
<linearGradient id="paint24_linear_124_472" x1="101.576" y1="83.1517" x2="106.721" y2="78.0033" gradientUnits="userSpaceOnUse">
<stop stop-color="#73D7FF"/>
<stop offset="1" stop-color="#93FFFF"/>
</linearGradient>
<linearGradient id="paint25_linear_124_472" x1="104.172" y1="127.362" x2="89.5889" y2="127.362" gradientUnits="userSpaceOnUse">
<stop offset="0.146" stop-color="#F3C29F"/>
<stop offset="0.861" stop-color="#C68B80"/>
</linearGradient>
<radialGradient id="paint26_radial_124_472" cx="0" cy="0" r="1" gradientUnits="userSpaceOnUse" gradientTransform="translate(98.4122 117.377) rotate(90) scale(2.90258 4.90362)">
<stop offset="0.106" stop-color="#F8C8AD"/>
<stop offset="1" stop-color="#F2C49E" stop-opacity="0"/>
</radialGradient>
<radialGradient id="paint27_radial_124_472" cx="0" cy="0" r="1" gradientUnits="userSpaceOnUse" gradientTransform="translate(98.4122 122.065) rotate(90) scale(3.11142 5.25637)">
<stop offset="0.109" stop-color="#F8C8AD"/>
<stop offset="1" stop-color="#F2C49E" stop-opacity="0"/>
</radialGradient>
<radialGradient id="paint28_radial_124_472" cx="0" cy="0" r="1" gradientUnits="userSpaceOnUse" gradientTransform="translate(98.4122 126.591) rotate(90) scale(2.60226 4.39624)">
<stop offset="0.109" stop-color="#F8C8AD"/>
<stop offset="1" stop-color="#F2C49E" stop-opacity="0"/>
</radialGradient>
<radialGradient id="paint29_radial_124_472" cx="0" cy="0" r="1" gradientUnits="userSpaceOnUse" gradientTransform="translate(98.4122 131.479) rotate(90) scale(2.89418 6.25375)">
<stop offset="0.186" stop-color="#F8C8AD"/>
<stop offset="1" stop-color="#F2C49E" stop-opacity="0"/>
</radialGradient>
<linearGradient id="paint30_linear_124_472" x1="-nan" y1="-nan" x2="-nan" y2="-nan" gradientUnits="userSpaceOnUse">
<stop stop-color="#AE7759"/>
<stop offset="1" stop-color="#C08666" stop-opacity="0"/>
</linearGradient>
<linearGradient id="paint31_linear_124_472" x1="-nan" y1="-nan" x2="-nan" y2="-nan" gradientUnits="userSpaceOnUse">
<stop stop-color="#AE7759"/>
<stop offset="1" stop-color="#C08666" stop-opacity="0"/>
</linearGradient>
<linearGradient id="paint32_linear_124_472" x1="-nan" y1="-nan" x2="-nan" y2="-nan" gradientUnits="userSpaceOnUse">
<stop stop-color="#AE7759"/>
<stop offset="1" stop-color="#C08666" stop-opacity="0"/>
</linearGradient>
<radialGradient id="paint33_radial_124_472" cx="0" cy="0" r="1" gradientUnits="userSpaceOnUse" gradientTransform="translate(81.1241 69.4551) rotate(82.6668) scale(8.86414 9.66011)">
<stop offset="0.229" stop-color="#FDD3AA"/>
<stop offset="1" stop-color="#D0A19A"/>
</radialGradient>
<linearGradient id="paint34_linear_124_472" x1="41.519" y1="71.5767" x2="44.4951" y2="71.5767" gradientUnits="userSpaceOnUse">
<stop stop-color="#EFB68E"/>
<stop offset="1" stop-color="#D99C8D"/>
</linearGradient>
<radialGradient id="paint35_radial_124_472" cx="0" cy="0" r="1" gradientUnits="userSpaceOnUse" gradientTransform="translate(82.9054 58.6586) rotate(-75.9042) scale(3.31007 4.93859)">
<stop stop-color="#886352"/>
<stop offset="1" stop-color="#9C726E"/>
</radialGradient>
<radialGradient id="paint36_radial_124_472" cx="0" cy="0" r="1" gradientUnits="userSpaceOnUse" gradientTransform="translate(73.1734 65.0417) rotate(180) scale(19.2999 34.1413)">
<stop stop-color="#FFC59F"/>
<stop offset="1" stop-color="#C8917D"/>
</radialGradient>
<radialGradient id="paint37_radial_124_472" cx="0" cy="0" r="1" gradientUnits="userSpaceOnUse" gradientTransform="translate(64.3406 62.1503) rotate(90) scale(27.1984 29.4725)">
<stop offset="0.619" stop-color="#C98C8C" stop-opacity="0"/>
<stop offset="1" stop-color="#B06B8E"/>
</radialGradient>
<linearGradient id="paint38_linear_124_472" x1="44.6942" y1="71.345" x2="49.897" y2="71.345" gradientUnits="userSpaceOnUse">
<stop offset="0.35" stop-color="#D49982"/>
<stop offset="1" stop-color="#D49982" stop-opacity="0"/>
</linearGradient>
<radialGradient id="paint39_radial_124_472" cx="0" cy="0" r="1" gradientUnits="userSpaceOnUse" gradientTransform="translate(55.0454 60.4255) rotate(-121.938) scale(5.13302 4.66801)">
<stop offset="0.37" stop-color="#C1847D"/>
<stop offset="1" stop-color="#C1847D" stop-opacity="0"/>
</radialGradient>
<radialGradient id="paint40_radial_124_472" cx="0" cy="0" r="1" gradientUnits="userSpaceOnUse" gradientTransform="translate(81.917 51.1823) rotate(92.9508) scale(21.4743 22.9713)">
<stop stop-color="#7A4351"/>
<stop offset="1" stop-color="#C48B80" stop-opacity="0"/>
</radialGradient>
<radialGradient id="paint41_radial_124_472" cx="0" cy="0" r="1" gradientUnits="userSpaceOnUse" gradientTransform="translate(49.1837 48.7601) rotate(76.1188) scale(14.9565 27.683)">
<stop stop-color="#AB6E6F"/>
<stop offset="1" stop-color="#AB6E6F" stop-opacity="0"/>
</radialGradient>
<linearGradient id="paint42_linear_124_472" x1="63.0142" y1="51.6566" x2="63.0142" y2="53.3546" gradientUnits="userSpaceOnUse">
<stop stop-color="#A0636A"/>
<stop offset="1" stop-color="#A0636A" stop-opacity="0"/>
</linearGradient>
<linearGradient id="paint43_linear_124_472" x1="62.8078" y1="68.561" x2="65.9613" y2="68.561" gradientUnits="userSpaceOnUse">
<stop stop-color="#E1AA8C"/>
<stop offset="1" stop-color="#FECAA8"/>
</linearGradient>
<linearGradient id="paint44_linear_124_472" x1="58.8469" y1="67.9853" x2="62.8114" y2="68.2025" gradientUnits="userSpaceOnUse">
<stop stop-color="#D29879" stop-opacity="0.915"/>
<stop offset="0.203" stop-color="#D29879"/>
<stop offset="1" stop-color="#D29879" stop-opacity="0"/>
</linearGradient>
<linearGradient id="paint45_linear_124_472" x1="62.8078" y1="70.0309" x2="62.8078" y2="73.1771" gradientUnits="userSpaceOnUse">
<stop stop-color="#CB8685" stop-opacity="0"/>
<stop offset="0.845" stop-color="#CB8685"/>
</linearGradient>
<linearGradient id="paint46_linear_124_472" x1="62.8078" y1="61.7363" x2="62.8078" y2="63.2822" gradientUnits="userSpaceOnUse">
<stop stop-color="#E0A78C"/>
<stop offset="1" stop-color="#E0A78C" stop-opacity="0"/>
</linearGradient>
<radialGradient id="paint47_radial_124_472" cx="0" cy="0" r="1" gradientUnits="userSpaceOnUse" gradientTransform="translate(58.6478 77.1885) rotate(-60.732) scale(2.62149 7.62861)">
<stop stop-color="#D7A293"/>
<stop offset="1" stop-color="#D7A293" stop-opacity="0"/>
</radialGradient>
<radialGradient id="paint48_radial_124_472" cx="0" cy="0" r="1" gradientUnits="userSpaceOnUse" gradientTransform="translate(62.8078 78.1117) rotate(-90) scale(2.66077 10.705)">
<stop stop-color="#89024E"/>
<stop offset="1" stop-color="#87004D"/>
</radialGradient>
<radialGradient id="paint49_radial_124_472" cx="0" cy="0" r="1" gradientUnits="userSpaceOnUse" gradientTransform="translate(70.8635 61.6636) rotate(90) scale(2.9952 4.76419)">
<stop offset="0.802" stop-color="#7D574A"/>
<stop offset="1" stop-color="#664842"/>
</radialGradient>
<radialGradient id="paint50_radial_124_472" cx="0" cy="0" r="1" gradientUnits="userSpaceOnUse" gradientTransform="translate(70.0199 61.9717) rotate(-127.813) scale(1.39653 1.9227)">
<stop offset="0.766" stop-color="#FFE6E2" stop-opacity="0"/>
<stop offset="0.966" stop-color="#FFE6E2"/>
</radialGradient>
<linearGradient id="paint51_linear_124_472" x1="73.7346" y1="61.8628" x2="72.576" y2="62.576" gradientUnits="userSpaceOnUse">
<stop stop-color="#B4948D"/>
<stop offset="1" stop-color="#B4948D" stop-opacity="0"/>
</linearGradient>
<radialGradient id="paint52_radial_124_472" cx="0" cy="0" r="1" gradientUnits="userSpaceOnUse" gradientTransform="translate(54.7521 61.6636) rotate(90) scale(2.99534 4.76441)">
<stop offset="0.802" stop-color="#7D574A"/>
<stop offset="1" stop-color="#664842"/>
</radialGradient>
<linearGradient id="paint53_linear_124_472" x1="57.4965" y1="61.8628" x2="56.3379" y2="62.576" gradientUnits="userSpaceOnUse">
<stop stop-color="#B4948D"/>
<stop offset="1" stop-color="#B4948D" stop-opacity="0"/>
</linearGradient>
<radialGradient id="paint54_radial_124_472" cx="0" cy="0" r="1" gradientUnits="userSpaceOnUse" gradientTransform="translate(54.2436 62.3617) rotate(-118.811) scale(1.82425 2.19283)">
<stop offset="0.766" stop-color="#FFE6E2" stop-opacity="0"/>
<stop offset="0.966" stop-color="#FFE6E2"/>
</radialGradient>
<radialGradient id="paint55_radial_124_472" cx="0" cy="0" r="1" gradientUnits="userSpaceOnUse" gradientTransform="translate(83.7709 59.0623) rotate(115.142) scale(12.6233 14.7549)">
<stop stop-color="#7A4A41"/>
<stop offset="1" stop-color="#C49888"/>
</radialGradient>
<radialGradient id="paint56_radial_124_472" cx="0" cy="0" r="1" gradientUnits="userSpaceOnUse" gradientTransform="translate(42.2033 59.0895) rotate(74.9315) scale(12.1857 8.20644)">
<stop stop-color="#A7664E"/>
<stop offset="1" stop-color="#BB7A71"/>
</radialGradient>
<linearGradient id="paint57_linear_124_472" x1="44.296" y1="63.7927" x2="41.4684" y2="63.876" gradientUnits="userSpaceOnUse">
<stop stop-color="#AC6C5C"/>
<stop offset="1" stop-color="#B27263"/>
</linearGradient>
<radialGradient id="paint58_radial_124_472" cx="0" cy="0" r="1" gradientUnits="userSpaceOnUse" gradientTransform="translate(80.7874 64.8389) rotate(-13.8877) scale(3.0594 3.23987)">
<stop stop-color="#A87666"/>
<stop offset="1" stop-color="#945F57"/>
</radialGradient>
<radialGradient id="paint59_radial_124_472" cx="0" cy="0" r="1" gradientUnits="userSpaceOnUse" gradientTransform="translate(63.2242 52.2973) rotate(-90) scale(5.06998 22.1939)">
<stop offset="0.671" stop-color="#3D3248"/>
<stop offset="1" stop-color="#2A193D"/>
</radialGradient>
<linearGradient id="paint60_linear_124_472" x1="63.9555" y1="52.2973" x2="63.9555" y2="51.7325" gradientUnits="userSpaceOnUse">
<stop stop-color="#391F48"/>
<stop offset="1" stop-color="#391F48" stop-opacity="0"/>
</linearGradient>
<radialGradient id="paint61_radial_124_472" cx="0" cy="0" r="1" gradientUnits="userSpaceOnUse" gradientTransform="translate(84.0128 40.1274) rotate(129.472) scale(22.4252 44.18)">
<stop stop-color="#6F5B84"/>
<stop offset="1" stop-color="#55406A"/>
</radialGradient>
<radialGradient id="paint62_radial_124_472" cx="0" cy="0" r="1" gradientUnits="userSpaceOnUse" gradientTransform="translate(71.1143 40.4711) rotate(146.725) scale(34.6443 39.5453)">
<stop offset="0.512" stop-color="#362D41" stop-opacity="0"/>
<stop offset="1" stop-color="#362D41"/>
</radialGradient>
<linearGradient id="paint63_linear_124_472" x1="34.0354" y1="51.5554" x2="37.8514" y2="51.5554" gradientUnits="userSpaceOnUse">
<stop stop-color="#57525E"/>
<stop offset="1" stop-color="#57525E" stop-opacity="0"/>
</linearGradient>
<radialGradient id="paint64_radial_124_472" cx="0" cy="0" r="1" gradientUnits="userSpaceOnUse" gradientTransform="translate(63.0141 48.047) rotate(90) scale(17.0844 38.2908)">
<stop stop-color="#8C68D5"/>
<stop offset="1" stop-color="#7B51C6"/>
</radialGradient>
<radialGradient id="paint65_radial_124_472" cx="0" cy="0" r="1" gradientUnits="userSpaceOnUse" gradientTransform="translate(44.148 56.8405) rotate(179.411) scale(3.18589 5.31144)">
<stop stop-color="#BE8A68"/>
<stop offset="1" stop-color="#C28F7B"/>
</radialGradient>
</defs>
</svg>
