<svg width="134" height="134" viewBox="0 0 134 134" fill="none" xmlns="http://www.w3.org/2000/svg">
<circle cx="67" cy="67" r="67" fill="#404040"/>
<mask id="mask0_124_471" style="mask-type:alpha" maskUnits="userSpaceOnUse" x="0" y="0" width="134" height="134">
<circle cx="67" cy="67" r="67" fill="#A9A9A9"/>
</mask>
<g mask="url(#mask0_124_471)">
<path d="M55.6005 73.8022C55.6005 75.5365 54.9115 77.1997 53.6852 78.4261C52.4589 79.6524 50.7957 80.3413 49.0614 80.3413C47.3271 80.3413 45.6639 79.6524 44.4376 78.4261C43.2113 77.1997 42.5223 75.5365 42.5223 73.8022C42.5223 72.068 43.2113 70.4047 44.4376 69.1784C45.6639 67.9521 47.3271 67.2632 49.0614 67.2632C50.7957 67.2632 52.4589 67.9521 53.6852 69.1784C54.9115 70.4047 55.6005 72.068 55.6005 73.8022V73.8022ZM91.0982 73.8022C91.0982 75.5365 90.4093 77.1997 89.183 78.4261C87.9567 79.6524 86.2934 80.3413 84.5592 80.3413C82.8249 80.3413 81.1617 79.6524 79.9353 78.4261C78.709 77.1997 78.0201 75.5365 78.0201 73.8022C78.0201 72.068 78.709 70.4047 79.9353 69.1784C81.1617 67.9521 82.8249 67.2632 84.5592 67.2632C86.2934 67.2632 87.9567 67.9521 89.183 69.1784C90.4093 70.4047 91.0982 72.068 91.0982 73.8022V73.8022Z" fill="#F4C6AD"/>
<path d="M37.8516 105.612C29.8739 112.874 24.9277 122.877 24 133.625H37.8516L41.3976 119.587L37.8516 105.612ZM58.4029 133.625H75.2177L81.4615 114.811L75.2177 95.2127C69.6669 94.1111 63.9537 94.1111 58.4029 95.2127L53.8405 114.811L58.4029 133.625ZM95.769 105.615L90.7731 119.587L95.769 133.625H109.621C108.692 122.878 103.746 112.876 95.769 105.615V105.615Z" fill="#00A6ED"/>
<path d="M58.4029 95.2126C56.1572 95.661 53.9713 96.2813 51.8639 97.0623L48.5943 115.282L51.8639 133.625H58.4029V95.2126ZM75.2177 95.2126C77.4671 95.661 79.6493 96.2813 81.7567 97.0623L85.1421 115.282L81.7567 133.591H75.2177V95.2126ZM37.8516 105.615C39.8703 103.771 42.0599 102.124 44.3907 100.694L47.8134 117.005L44.3907 133.588H37.8516V105.615ZM89.2299 100.698C91.5605 102.126 93.7501 103.773 95.769 105.615V133.588H89.2299L87.3317 118.335L89.2299 100.698Z" fill="#FF6723"/>
<path d="M66.7954 106.535C62.6702 106.535 59.3371 103.515 59.3371 99.7787V95.3247H74.2835V99.7787C74.2499 103.485 70.9206 106.535 66.7954 106.535Z" fill="#F4C6AD"/>
<path d="M65.0915 47.6831C54.1806 47.6831 45.5191 56.4268 46.3076 66.7398L47.8134 87.4406C48.486 93.9423 53.9041 98.5757 60.4656 98.5757H73.1214C79.724 98.5757 85.1421 93.9423 85.7736 87.4406L87.3168 66.7398C88.0641 56.4268 79.4475 47.6831 68.5329 47.6831H65.0952H65.0915Z" fill="#FFD7C2"/>
<path d="M81.6184 49.5439C82.5078 50.3959 83.5092 51.1432 84.6227 51.6999L86.0314 60.253H90.0408L87.9632 71.6721C87.8647 72.2117 87.588 72.7026 87.1775 73.0664C86.767 73.4302 86.2463 73.6458 85.6988 73.6787C85.6988 73.6787 85.8857 70.4801 86.0351 68.3988C86.0774 67.8702 85.9953 67.3391 85.7955 66.8479C85.5956 66.3567 85.2836 65.9191 84.8842 65.5702L84.1369 64.9387C83.6778 64.5269 83.3117 64.0219 83.063 63.4575C82.8143 62.8931 82.6887 62.2822 82.6946 61.6655V58.4669C82.7023 58.0241 82.5594 57.5917 82.2892 57.2407C82.019 56.8897 81.6376 56.6409 81.2074 56.5351C78.872 55.9373 73.8239 54.9358 66.8103 54.9358C59.7967 54.9358 54.7485 55.9373 52.4131 56.4977C51.9894 56.6151 51.6153 56.867 51.3471 57.2154C51.0788 57.5638 50.9311 57.9899 50.926 58.4296V61.6281C50.926 62.8948 50.3692 64.0831 49.4425 64.9387L48.7737 65.5366C48.3825 65.891 48.0762 66.329 47.8776 66.8181C47.679 67.3071 47.5932 67.8347 47.6265 68.3615C47.776 70.4428 47.9965 73.6787 47.9965 73.6787C47.4361 73.6616 46.8984 73.4532 46.4728 73.0882C46.0473 72.7231 45.7595 72.2234 45.6574 71.6721L43.5798 60.253H47.9965L48.9979 51.6962C50.1114 51.1432 51.1128 50.4332 51.9647 49.5439L55.7163 45.8223C56.7458 44.7902 58.0745 44.109 59.5135 43.8756C60.9524 43.6421 62.4283 43.8683 63.7313 44.5219C65.7104 45.2281 67.8728 45.2281 69.8519 44.5219C73.3419 42.96 76.2714 44.223 78.5731 46.4911L81.6184 49.5439V49.5439Z" fill="#212121"/>
<path d="M51.9012 72.6436C52.1927 71.4016 52.9038 70.2983 53.9145 69.5198C54.9251 68.7413 56.1734 68.3354 57.4486 68.3705C58.7238 68.4056 59.9479 68.8797 60.9142 69.7126C61.8804 70.5456 62.5297 71.6864 62.7523 72.9425C62.8644 73.503 62.3787 74.0262 61.8294 74.0262H52.9699C52.8015 74.0251 52.6356 73.9857 52.4847 73.911C52.3338 73.8364 52.2019 73.7283 52.0989 73.5951C51.9959 73.4619 51.9246 73.307 51.8904 73.1421C51.8561 72.9773 51.8599 72.8068 51.9012 72.6436V72.6436ZM81.7194 72.6436C81.4287 71.4324 80.7394 70.3539 79.7623 69.5814C78.7852 68.8089 77.5768 68.3872 76.3312 68.3839C73.6408 68.3839 71.3876 70.3269 70.872 72.9425C70.7599 73.503 71.2382 74.0262 71.7912 74.0262H80.6507C81.3532 74.0262 81.9062 73.3536 81.7194 72.6436Z" fill="white"/>
<path d="M54.5916 73.0547C54.5916 71.0743 56.1796 69.4675 58.1376 69.4675C60.0919 69.4675 61.6799 71.0743 61.6799 73.092C61.6799 73.391 61.6425 73.7273 61.6052 74.0262H54.741C54.6375 73.7129 54.587 73.3846 54.5916 73.0547V73.0547ZM79.0663 73.0547C79.0663 71.0743 77.4783 69.4675 75.5203 69.4675C74.5671 69.4704 73.6532 69.8483 72.9764 70.5196C72.2995 71.1908 71.9141 72.1015 71.9033 73.0547C71.9033 73.391 71.978 73.7273 72.0527 74.0262H78.9169C79.029 73.6899 79.0663 73.391 79.0663 73.0547V73.0547Z" fill="#7D4533"/>
<path d="M58.1376 70.9995C59.2437 70.9995 60.1666 71.9337 60.1666 73.0546C60.1666 73.3909 60.0545 73.6899 59.9088 74.0262H56.3291C56.1812 73.7237 56.1045 73.3914 56.1049 73.0546C56.1049 71.9337 57.0316 70.9995 58.1376 70.9995V70.9995ZM75.5203 70.9995C74.9801 71.0074 74.4646 71.2272 74.0851 71.6117C73.7055 71.9961 73.4923 72.5144 73.4913 73.0546C73.4913 73.3909 73.5661 73.6899 73.7492 74.0262H77.3288C77.4768 73.7237 77.5535 73.3914 77.553 73.0546C77.553 71.9337 76.6264 70.9995 75.5203 70.9995V70.9995Z" fill="black"/>
<path d="M57.5435 71.6347C57.5435 71.986 57.267 72.27 56.9195 72.27C56.8366 72.2695 56.7546 72.2526 56.6781 72.2205C56.6017 72.1883 56.5324 72.1413 56.4741 72.0824C56.4158 72.0234 56.3697 71.9535 56.3384 71.8767C56.3071 71.7999 56.2913 71.7177 56.2918 71.6347C56.2918 71.2835 56.572 70.9995 56.9195 70.9995C57.267 70.9995 57.5473 71.2835 57.5473 71.6347H57.5435ZM75.042 71.6347C75.0421 71.8019 74.9762 71.9624 74.8586 72.0813C74.7411 72.2002 74.5815 72.268 74.4143 72.27C74.3314 72.2695 74.2493 72.2526 74.1729 72.2205C74.0965 72.1883 74.0272 72.1413 73.9689 72.0824C73.9106 72.0234 73.8645 71.9535 73.8332 71.8767C73.8019 71.7999 73.7861 71.7177 73.7865 71.6347C73.7865 71.2835 74.0668 70.9995 74.4143 70.9995C74.5815 71.0015 74.7411 71.0693 74.8586 71.1882C74.9762 71.3071 75.0421 71.4676 75.042 71.6347Z" fill="white"/>
<path d="M65.2783 72.098L63.1671 78.6296C62.7523 79.971 63.7724 81.3125 65.2446 81.3125H68.3759C69.8481 81.3125 70.8682 79.9673 70.4535 78.6296L68.3385 72.098C67.849 70.6818 65.7341 70.6818 65.282 72.098H65.2783Z" fill="#E5AF93"/>
<path d="M66.8178 86.0806C64.8449 86.0875 62.903 85.5911 61.1755 84.6382C60.6337 84.3393 60.0171 84.982 60.3796 85.55C61.7547 87.7546 64.1423 89.2343 66.8178 89.2343C69.5305 89.2343 71.9182 87.7508 73.2559 85.55C73.581 84.982 73.0018 84.3356 72.46 84.6382C70.7326 85.5912 68.7906 86.0876 66.8178 86.0806Z" fill="#990838"/>
<path d="M58.4851 32.7366H75.1728C82.9487 32.7366 89.2299 39.5521 89.2299 47.9035V57.9587H90.1491C92.7573 57.9587 94.8722 60.0512 94.8348 62.5921C94.8348 65.1329 92.7573 67.2254 90.1491 67.2254H43.4714C40.9007 67.2254 38.7857 65.1703 38.7857 62.5921C38.7857 60.0512 40.8633 57.9587 43.4714 57.9587H44.3906V47.9035C44.3906 39.511 50.7055 32.7366 58.4851 32.7366ZM44.3906 100.698C46.7447 99.2556 49.2445 98.0338 51.8639 97.0622V133.625H44.3906V100.694V100.698ZM81.7567 97.0622C84.3761 98.0338 86.8759 99.2556 89.2299 100.698V133.625H81.7567V97.0622Z" fill="#FFF478"/>
<path d="M70.3675 29H63.2941C59.0381 29 55.6005 32.3181 55.6005 36.4172V57.9587H78.0201V36.4172C78.0575 32.3181 74.6198 29 70.3675 29Z" fill="#FCD53F"/>
</g>
</svg>
