<svg width="32" height="27" viewBox="0 0 32 27" fill="none" xmlns="http://www.w3.org/2000/svg">
<path d="M14.7692 15.9545V23.3182C14.7692 24.3409 14.4103 25.2102 13.6923 25.9261C12.9744 26.642 12.1026 27 11.0769 27H3.69231C2.66667 27 1.79487 26.642 1.07692 25.9261C0.358974 25.2102 0 24.3409 0 23.3182V9.81818C0 8.48864 0.259615 7.21982 0.778846 6.01172C1.29808 4.80362 2 3.75852 2.88462 2.87642C3.76923 1.99432 4.81731 1.29439 6.02885 0.776634C7.24038 0.258878 8.51282 0 9.84615 0H11.0769C11.4103 0 11.6987 0.121449 11.9423 0.364347C12.1859 0.607244 12.3077 0.894886 12.3077 1.22727V3.68182C12.3077 4.0142 12.1859 4.30185 11.9423 4.54474C11.6987 4.78764 11.4103 4.90909 11.0769 4.90909H9.84615C8.48718 4.90909 7.32692 5.38849 6.36538 6.3473C5.40385 7.30611 4.92308 8.46307 4.92308 9.81818V10.4318C4.92308 10.9432 5.10256 11.3778 5.46154 11.7358C5.82051 12.0938 6.25641 12.2727 6.76923 12.2727H11.0769C12.1026 12.2727 12.9744 12.6307 13.6923 13.3466C14.4103 14.0625 14.7692 14.9318 14.7692 15.9545ZM32 15.9545V23.3182C32 24.3409 31.641 25.2102 30.9231 25.9261C30.2051 26.642 29.3333 27 28.3077 27H20.9231C19.8974 27 19.0256 26.642 18.3077 25.9261C17.5897 25.2102 17.2308 24.3409 17.2308 23.3182V9.81818C17.2308 8.48864 17.4904 7.21982 18.0096 6.01172C18.5288 4.80362 19.2308 3.75852 20.1154 2.87642C21 1.99432 22.0481 1.29439 23.2596 0.776634C24.4712 0.258878 25.7436 0 27.0769 0H28.3077C28.641 0 28.9295 0.121449 29.1731 0.364347C29.4167 0.607244 29.5385 0.894886 29.5385 1.22727V3.68182C29.5385 4.0142 29.4167 4.30185 29.1731 4.54474C28.9295 4.78764 28.641 4.90909 28.3077 4.90909H27.0769C25.7179 4.90909 24.5577 5.38849 23.5962 6.3473C22.6346 7.30611 22.1538 8.46307 22.1538 9.81818V10.4318C22.1538 10.9432 22.3333 11.3778 22.6923 11.7358C23.0513 12.0938 23.4872 12.2727 24 12.2727H28.3077C29.3333 12.2727 30.2051 12.6307 30.9231 13.3466C31.641 14.0625 32 14.9318 32 15.9545Z" fill="#D9D9D9"/>
</svg>
