<svg width="66" height="63" viewBox="0 0 66 63" fill="none" xmlns="http://www.w3.org/2000/svg">
<path d="M63.8668 22.1841L44.0813 19.3098L35.2366 1.38653C34.9951 0.895804 34.5976 0.498547 34.1067 0.257077C32.8755 -0.350492 31.3793 0.155816 30.7637 1.38653L21.919 19.3098L2.1335 22.1841C1.58802 22.262 1.08929 22.519 0.70745 22.9085C0.245827 23.3828 -0.00854781 24.0208 0.000219331 24.6825C0.00898648 25.3441 0.280179 25.9752 0.754206 26.4371L15.0693 40.3878L11.6873 60.0871C11.608 60.5453 11.6587 61.0166 11.8337 61.4475C12.0087 61.8784 12.301 62.2516 12.6775 62.5249C13.0539 62.7982 13.4994 62.9606 13.9635 62.9937C14.4276 63.0268 14.8916 62.9292 15.3031 62.7121L33.0002 53.4116L50.6972 62.7121C51.1804 62.9691 51.7415 63.0548 52.2792 62.9613C53.6351 62.7276 54.5468 61.4424 54.313 60.0871L50.931 40.3878L65.2461 26.4371C65.6357 26.0554 65.8929 25.5569 65.9708 25.0116C66.1812 23.6485 65.2305 22.3866 63.8668 22.1841V22.1841Z" fill="#FFF000"/>
</svg>
