<svg width="28" height="18" viewBox="0 0 28 18" fill="none" xmlns="http://www.w3.org/2000/svg">
<path fill-rule="evenodd" clip-rule="evenodd" d="M28 9C28 8.73482 27.8947 8.4805 27.7071 8.29299C27.5196 8.10548 27.2653 8.00014 27.0001 8.00014H3.41557L9.70917 1.70902C9.80214 1.61606 9.87589 1.5057 9.9262 1.38424C9.97652 1.26277 10.0024 1.13259 10.0024 1.00112C10.0024 0.869653 9.97652 0.739471 9.9262 0.61801C9.87589 0.496548 9.80214 0.386185 9.70917 0.293222C9.6162 0.200259 9.50583 0.126517 9.38436 0.076206C9.26288 0.0258949 9.13269 0 9.00121 0C8.86973 0 8.73954 0.0258949 8.61807 0.076206C8.4966 0.126517 8.38623 0.200259 8.29326 0.293222L0.293769 8.2921C0.200648 8.38498 0.126767 8.49531 0.0763576 8.61679C0.0259479 8.73826 0 8.86848 0 9C0 9.13152 0.0259479 9.26174 0.0763576 9.38321C0.126767 9.50469 0.200648 9.61502 0.293769 9.7079L8.29326 17.7068C8.38623 17.7997 8.4966 17.8735 8.61807 17.9238C8.73954 17.9741 8.86973 18 9.00121 18C9.13269 18 9.26288 17.9741 9.38436 17.9238C9.50583 17.8735 9.6162 17.7997 9.70917 17.7068C9.80214 17.6138 9.87589 17.5035 9.9262 17.382C9.97652 17.2605 10.0024 17.1303 10.0024 16.9989C10.0024 16.8674 9.97652 16.7372 9.9262 16.6158C9.87589 16.4943 9.80214 16.3839 9.70917 16.291L3.41557 9.99986H27.0001C27.2653 9.99986 27.5196 9.89452 27.7071 9.70701C27.8947 9.5195 28 9.26518 28 9Z" fill="black"/>
</svg>
