<svg width="71" height="72" viewBox="0 0 71 72" fill="none" xmlns="http://www.w3.org/2000/svg">
<mask id="mask0_83_38" style="mask-type:alpha" maskUnits="userSpaceOnUse" x="9" y="10" width="53" height="52">
<circle cx="35.2225" cy="36.2031" r="25.7846" transform="rotate(30 35.2225 36.2031)" fill="#D9D9D9" fill-opacity="0.5"/>
</mask>
<g mask="url(#mask0_83_38)">
<rect x="31.4133" y="-6.19006" width="2.57846" height="70.9077" transform="rotate(30 31.4133 -6.19006)" fill="#3B82F6" fill-opacity="0.7"/>
<rect x="67.1416" y="14.4376" width="2.57846" height="70.9077" transform="rotate(30 67.1416 14.4376)" fill="#3B82F6" fill-opacity="0.7"/>
<rect x="49.2775" y="4.12378" width="2.57846" height="70.9077" transform="rotate(30 49.2775 4.12378)" fill="#3B82F6" fill-opacity="0.7"/>
<rect x="40.3455" y="-1.0332" width="2.57846" height="70.9077" transform="rotate(30 40.3455 -1.0332)" fill="#3B82F6" fill-opacity="0.7"/>
<rect x="58.2096" y="9.28064" width="2.57846" height="70.9077" transform="rotate(30 58.2096 9.28064)" fill="#3B82F6" fill-opacity="0.7"/>
<rect x="35.8794" y="-3.61169" width="2.57846" height="70.9077" transform="rotate(30 35.8794 -3.61169)" fill="#3B82F6" fill-opacity="0.7"/>
<rect x="71.6077" y="17.016" width="2.57846" height="70.9077" transform="rotate(30 71.6077 17.016)" fill="#3B82F6" fill-opacity="0.7"/>
<rect x="53.7435" y="6.70215" width="2.57846" height="70.9077" transform="rotate(30 53.7435 6.70215)" fill="#3B82F6" fill-opacity="0.7"/>
<rect x="44.8114" y="1.54529" width="2.57846" height="70.9077" transform="rotate(30 44.8114 1.54529)" fill="#3B82F6" fill-opacity="0.7"/>
<rect x="62.6757" y="11.8591" width="2.57846" height="70.9077" transform="rotate(30 62.6757 11.8591)" fill="#3B82F6" fill-opacity="0.7"/>
</g>
</svg>
