<?xml version="1.0" encoding="UTF-8"?>
<!DOCTYPE svg PUBLIC "-//W3C//DTD SVG 1.1//EN" "http://www.w3.org/Graphics/SVG/1.1/DTD/svg11.dtd">
<!-- Creator: CorelDRAW X7 -->
<svg xmlns="http://www.w3.org/2000/svg" xml:space="preserve" width="275.591in" height="98.4252in" version="1.1" style="shape-rendering:geometricPrecision; text-rendering:geometricPrecision; image-rendering:optimizeQuality; fill-rule:evenodd; clip-rule:evenodd"
viewBox="0 0 275591 98425"
 xmlns:xlink="http://www.w3.org/1999/xlink">
 <defs>
  <style type="text/css">
   <![CDATA[
    .str1 {stroke:#3B82F6;stroke-width:196.85}
    .str2 {stroke:#3B82F6;stroke-width:393.701}
    .str0 {stroke:#3B82F6;stroke-width:7.87402}
    .fil1 {fill:none}
    .fil0 {fill:#EEEEEF}
    .fil2 {fill:#3B82F6}
   ]]>
  </style>
 </defs>
 <g id="Layer_x0020_1">
  <metadata id="CorelCorpID_0Corel-Layer"/>
  <g id="_1389334234048">
   <rect class="fil0" x="341" y="1" width="275577" height="98427"/>
   <g>
    <line class="fil1 str0" x1="252015" y1="1" x2="252015" y2= "20517" />
    <line class="fil1 str0" x1="260515" y1="1" x2="260515" y2= "20517" />
    <line class="fil1 str0" x1="268515" y1="1" x2="268515" y2= "20517" />
    <line class="fil1 str1" x1="31181" y1="98428" x2="31181" y2= "74189" />
    <line class="fil1 str0" x1="14928" y1="98428" x2="14928" y2= "73156" />
    <line class="fil1 str0" x1="397" y1="86302" x2="31237" y2= "86302" />
    <path class="fil1 str1" d="M170320 1l0 15489c563,3252 2539,4738 5473,5027l23229 0m2097 0l40125 0m2097 0l32577 0"/>
    <line class="fil1 str1" x1="200070" y1="1" x2="200070" y2= "19485" />
    <line class="fil1 str1" x1="242293" y1="1" x2="242293" y2= "19485" />
    <path class="fil1 str1" d="M341 73156l29792 0m2097 0l49236 0m2097 0l42730 0 0 25272"/>
    <line class="fil1 str1" x1="82515" y1="98428" x2="82515" y2= "74189" />
    <ellipse class="fil2 str2" cx="31181" cy="73156" rx="1049" ry="1033"/>
    <ellipse class="fil2 str2" cx="82515" cy="73156" rx="1049" ry="1033"/>
    <ellipse class="fil2 str2" cx="200070" cy="20517" rx="1049" ry="1033"/>
    <ellipse class="fil2 str2" cx="242293" cy="20517" rx="1049" ry="1033"/>
   </g>
  </g>
 </g>
</svg>
